<svg xmlns="http://www.w3.org/2000/svg" viewBox="0 0 500 500"><g id="freepik--background-simple--inject-87"><path d="M422.92,85.56q-2.52-2.48-5.2-4.8C380.53,48.5,331.15,31.62,283,24.8c-48.8-6.91-100.56-.65-142.61,26.49q-7,4.55-13.59,9.76C91.76,89,75.07,128,70.48,171.92,67,205.45,50.32,231.71,38.89,262.7,26.46,296.41,26.61,337.87,43,370.3c19.46,38.51,58.33,58.19,97.91,70.17,66.83,20.22,141.73,20.16,206.85-6.35,45.14-18.38,91-49.95,109.57-96.7,16.55-41.76,17.34-88.66,11.92-132.72C464,161.86,455,116.93,422.92,85.56Z" style="fill:#92E3A9"></path><path d="M422.92,85.56q-2.52-2.48-5.2-4.8C380.53,48.5,331.15,31.62,283,24.8c-48.8-6.91-100.56-.65-142.61,26.49q-7,4.55-13.59,9.76C91.76,89,75.07,128,70.48,171.92,67,205.45,50.32,231.71,38.89,262.7,26.46,296.41,26.61,337.87,43,370.3c19.46,38.51,58.33,58.19,97.91,70.17,66.83,20.22,141.73,20.16,206.85-6.35,45.14-18.38,91-49.95,109.57-96.7,16.55-41.76,17.34-88.66,11.92-132.72C464,161.86,455,116.93,422.92,85.56Z" style="fill:#fff;opacity:0.7000000000000001"></path></g><g id="freepik--Clouds--inject-87"><path d="M221.43,85.16H46L70.8,79.28c.42-1.19,2.28-5.74,6.8-7.75,4.15-1.84,7.59,1,8.87,2.31,1.16-2.42,5.38-10.25,12.16-11.7a10.29,10.29,0,0,1,9.22,2.27,7.7,7.7,0,0,0,.79.56s0-.13.07-.24c.52-2.63,4.4-11.15,9.52-15.7,5.57-5,18.53-9.79,31.41-2.82,11.28,6.11,17.46,17.89,19.07,21.33,1-1.78,3.51-5.52,7.35-6.57,2.51-.68,5.13-.07,7.78,1.8a21.13,21.13,0,0,1,6.81,8.51,15.23,15.23,0,0,1,8.43-.88c4.75,1.06,6.59,8.85,6.94,10.55Zm-166.89-1H214l-8.82-2.41-.06-.31c0-.09-1.65-9-6.22-10.06a14.59,14.59,0,0,0-8.29,1l-.45.18-.19-.44a20.39,20.39,0,0,0-6.68-8.54c-2.39-1.69-4.73-2.25-6.93-1.65-4.54,1.22-7.17,6.89-7.19,7L168.66,70l-.44-1.08c-.06-.14-6.15-14.79-19.05-21.78-12.43-6.73-24.92-2.08-30.28,2.69-5,4.41-8.7,12.61-9.2,15.15a1.29,1.29,0,0,1-.67,1c-.54.2-1-.18-1.78-.76a9.3,9.3,0,0,0-8.4-2.09c-7.37,1.58-11.72,11.72-11.77,11.83l-.33.78-.52-.67c-.15-.19-3.68-4.62-8.22-2.6s-6.31,7.34-6.33,7.39l-.08.28Z" style="fill:#263238"></path><path d="M436.74,343.34H312.11L330.58,339a9.64,9.64,0,0,1,4.79-5.4c2.82-1.26,5.18.51,6.2,1.49.93-1.9,3.85-7.06,8.47-8.05a7.29,7.29,0,0,1,6.55,1.62l.36.27a26.09,26.09,0,0,1,6.68-11,19.87,19.87,0,0,1,22.05-2c7.73,4.18,11.94,11.95,13.23,14.65.79-1.33,2.5-3.69,5.06-4.38a6.45,6.45,0,0,1,5.54,1.27,14.91,14.91,0,0,1,4.74,5.86,10.63,10.63,0,0,1,5.82-.57c3.32.74,4.64,6,4.93,7.37Zm-116.07-1H429.28l-5.15-1.41-.05-.31c0-.06-1.14-6.2-4.22-6.89a10.1,10.1,0,0,0-5.68.7l-.45.18-.2-.44a14.17,14.17,0,0,0-4.59-5.89,5.54,5.54,0,0,0-4.71-1.12c-3.08.83-4.89,4.72-4.91,4.76l-.48,1.05-.44-1.07c0-.1-4.26-10.25-13.2-15.09a18.85,18.85,0,0,0-20.91,1.85,25.22,25.22,0,0,0-6.36,10.46,1.05,1.05,0,0,1-.56.83c-.46.17-.85-.13-1.39-.54a6.32,6.32,0,0,0-5.73-1.43c-5.05,1.08-8.05,8.08-8.08,8.15l-.33.78-.53-.67c-.1-.13-2.49-3.12-5.54-1.77a8.93,8.93,0,0,0-4.33,5.06l-.08.27Z" style="fill:#263238"></path><path d="M451.63,84.58H341.15l16.7-4a8.56,8.56,0,0,1,4.23-4.75,5,5,0,0,1,5.46,1.25c.86-1.74,3.43-6.15,7.44-7a6.42,6.42,0,0,1,5.81,1.43c.08,0,.16.12.24.18a23.09,23.09,0,0,1,5.86-9.59,17.55,17.55,0,0,1,19.45-1.75c6.71,3.64,10.41,10.33,11.6,12.8a8.15,8.15,0,0,1,4.42-3.78,5.7,5.7,0,0,1,4.92,1.12,13.11,13.11,0,0,1,4.16,5.13,9.41,9.41,0,0,1,5.1-.49c2.92.65,4.1,5.23,4.37,6.49Zm-101.92-1h94.45L440,82.45l-.05-.31c-.27-1.5-1.45-5.51-3.67-6a8.62,8.62,0,0,0-4.95.61l-.45.18-.2-.44a12.34,12.34,0,0,0-4-5.15,4.81,4.81,0,0,0-4.09-1c-2.69.73-4.25,4.12-4.27,4.15l-.48,1.06-.44-1.08c0-.09-3.74-9-11.57-13.23a16.52,16.52,0,0,0-18.31,1.62A22.17,22.17,0,0,0,382,72a1,1,0,0,1-.53.78c-.43.16-.8-.13-1.27-.49a5.51,5.51,0,0,0-5-1.25c-4.4,1-7,7.06-7.06,7.13l-.33.78-.52-.67c-.09-.11-2.17-2.71-4.8-1.54a7.77,7.77,0,0,0-3.77,4.41l-.08.27Z" style="fill:#263238"></path></g><g id="freepik--Plants--inject-87"><path d="M374.34,402.74c2,.86,6.82.75,6.83.75s-1.05-3.17-1.14-3.36c-1.06-2.22-4.42-5.89-7.15-5.52a3.25,3.25,0,0,0-2.62,4.09C370.71,400.59,372.65,402,374.34,402.74Z" style="fill:#263238"></path><path d="M376,416.76c2.05.3,6.38-.95,6.72-1.05a58,58,0,0,0,2.62,7.25c.59,1.38,1.24,2.74,1.9,4.11-.4-.58-.75-1.09-.81-1.16-1.61-1.86-5.82-4.52-8.36-3.44a3.27,3.27,0,0,0-1.45,4.64c.94,1.71,3.19,2.55,5,2.82s5.55-.73,6.53-1l.77,1.56c1.25,2.49,2.51,5,3.67,7.44.41.87.78,1.74,1.16,2.62-.35-.52-.65-.94-.71-1-1.61-1.86-5.82-4.51-8.36-3.43a3.26,3.26,0,0,0-1.44,4.64c.93,1.7,3.18,2.55,5,2.81s5.19-.63,6.35-.95c.36.9.72,1.81,1,2.7.19.61.42,1.19.58,1.82l.51,1.84c.29,1.17.59,2.39.83,3.54.18.81.33,1.58.49,2.35-.39-.87-1.21-2.56-1.29-2.69-1.31-2.09-5.07-5.35-7.75-4.67a3.28,3.28,0,0,0-2.13,4.37c.67,1.83,2.76,3,4.52,3.54,1.94.59,6.23,0,6.76,0,.26,1.28.5,2.53.7,3.71.11.63.21,1.22.31,1.81h1.7c-.12-.68-.26-1.38-.4-2.11-.26-1.3-.56-2.69-.88-4.11a35.88,35.88,0,0,0,3.78-1.77c1.41,1.53,5,3.32,5.49,3.54-.49,1.22-1,2.39-1.46,3.49l-.42,1h1.79l.14-.33c.5-1.22,1-2.55,1.53-3.91.52.11,4.77,1,6.75.53,1.79-.41,4-1.42,4.77-3.2a3.26,3.26,0,0,0-1.8-4.51c-2.62-.88-6.61,2.09-8.07,4.07-.09.12-.88,1.49-1.37,2.37.21-.56.42-1.1.62-1.68.42-1.13.8-2.28,1.22-3.51.18-.61.36-1.22.55-1.83s.32-1.27.49-1.91c.35-1.49.64-3,.9-4.57,1,.36,4.55,1.6,6.4,1.47s4.13-.8,5.2-2.44a3.26,3.26,0,0,0-1.1-4.73c-2.45-1.26-6.85,1.07-8.59,2.81-.11.1-1.22,1.49-1.82,2.26.15-.93.3-1.86.41-2.8.34-2.74.6-5.52.87-8.29.08-.85.18-1.69.27-2.54.35.13,4.55,1.7,6.61,1.55,1.84-.13,4.14-.8,5.2-2.43a3.28,3.28,0,0,0-1.09-4.74c-2.46-1.26-6.85,1.07-8.6,2.81-.13.13-1.73,2.13-2.11,2.66.2-1.87.41-3.72.7-5.54a57.36,57.36,0,0,1,1.59-7.29c.16.06,4.54,1.71,6.65,1.57,1.84-.13,4.14-.81,5.2-2.44a3.26,3.26,0,0,0-1.1-4.73c-2.45-1.27-6.84,1.06-8.59,2.8-.14.14-1.85,2.29-2.14,2.7,0-.14.07-.28.11-.42a41.65,41.65,0,0,1,2.89-6.89c.63-1.23,1.29-2.37,2-3.46.78.39,4.38,2.13,6.3,2.21s4.2-.34,5.44-1.85a3.26,3.26,0,0,0-.57-4.82c-2.3-1.53-6.93.31-8.85,1.84-.11.08-1.08,1.05-1.78,1.77.32-.49.63-1,.94-1.47,1.15-1.73,2.32-3.25,3.36-4.59.6-.76,1.15-1.43,1.68-2.05,1,0,4.87-.14,6.58-.94s3.57-2.24,4-4.15a3.27,3.27,0,0,0-2.73-4c-2.74-.29-6,3.47-7,5.72-.09.19-1.1,3.39-1,3.39h0c-.52.59-1.06,1.23-1.65,1.94-1.07,1.31-2.27,2.81-3.47,4.53a59.08,59.08,0,0,0-3.6,5.73,42.45,42.45,0,0,0-3.07,6.92l0,.09c0-.81,0-3.07,0-3.24-.32-2.45-2.36-7-5.08-7.48a3.26,3.26,0,0,0-3.76,3.07c-.16,1.94,1.25,3.88,2.62,5.11,1.55,1.38,5.84,2.72,6.18,2.82a59.49,59.49,0,0,0-1.81,7.5c-.26,1.47-.48,3-.68,4.47,0-.7,0-1.32,0-1.41-.32-2.44-2.37-7-5.08-7.48a3.26,3.26,0,0,0-3.76,3.07c-.16,1.94,1.25,3.88,2.62,5.11s5,2.46,6,2.77c-.07.57-.15,1.15-.22,1.73-.33,2.76-.65,5.53-1.05,8.23-.13,1-.31,1.89-.47,2.82,0-.62,0-1.14,0-1.22-.31-2.45-2.36-7-5.07-7.48a3.27,3.27,0,0,0-3.77,3.07c-.16,1.94,1.25,3.88,2.62,5.11s4.68,2.34,5.83,2.71c-.2.95-.4,1.9-.64,2.81-.18.62-.31,1.23-.52,1.84s-.39,1.22-.58,1.82c-.42,1.14-.84,2.31-1.27,3.42-.29.76-.59,1.49-.89,2.22.15-.94.41-2.8.41-3a12.62,12.62,0,0,0-1.7-6.17,4.35,4.35,0,0,0,0-.72,3.28,3.28,0,0,0-4-2.77c-2.66.71-4.35,5.39-4.48,7.85,0,.15.09,1.73.16,2.73-.13-.58-.25-1.15-.4-1.74-.28-1.18-.59-2.35-.92-3.61-.19-.6-.37-1.21-.56-1.82s-.43-1.24-.64-1.87c-.53-1.44-1.13-2.87-1.77-4.31,1-.24,4.68-1.17,6.15-2.3s3-2.95,3-4.9a3.25,3.25,0,0,0-3.52-3.34c-2.75.3-5.13,4.67-5.63,7.08,0,.15-.19,1.92-.26,2.89-.39-.85-.78-1.71-1.2-2.57-1.23-2.47-2.55-4.93-3.85-7.39-.4-.75-.79-1.51-1.18-2.26.37-.08,4.73-1.1,6.37-2.36,1.46-1.12,3-2.95,3-4.9a3.27,3.27,0,0,0-3.53-3.34c-2.74.3-5.12,4.67-5.62,7.08,0,.18-.27,2.73-.29,3.38-.87-1.66-1.71-3.33-2.48-5a57.92,57.92,0,0,1-2.69-7c.17,0,4.73-1.07,6.41-2.36,1.46-1.12,3-2.95,3-4.9a3.26,3.26,0,0,0-3.53-3.34c-2.74.29-5.12,4.66-5.62,7.08,0,.19-.29,2.93-.3,3.43,0-.14-.1-.28-.14-.42a42.39,42.39,0,0,1-1.39-7.34c-.16-1.37-.23-2.69-.27-4,.87-.11,4.84-.63,6.48-1.63s3.31-2.6,3.51-4.54A3.26,3.26,0,0,0,388.4,394c-2.76,0-5.61,4.08-6.37,6.42,0,.13-.32,1.47-.5,2.45,0-.58,0-1.18,0-1.73,0-2.09.14-4,.27-5.69.08-1,.17-1.83.27-2.64.8-.55,4-2.8,5-4.41s1.74-3.84,1-5.65a3.27,3.27,0,0,0-4.49-1.85c-2.45,1.27-3.1,6.2-2.69,8.63,0,.21,1,3.43,1,3.41l0,0c-.11.78-.21,1.62-.31,2.53-.17,1.69-.34,3.61-.39,5.7a55.85,55.85,0,0,0,.16,6.76,42.53,42.53,0,0,0,1.25,7.47l0,.09c-.43-.69-1.71-2.55-1.83-2.68-1.61-1.87-5.82-4.52-8.36-3.44A3.26,3.26,0,0,0,371,414C372,415.65,374.19,416.5,376,416.76Z" style="fill:#263238"></path><path d="M423.32,403.8s.88-3.22.91-3.43c.34-2.44-.44-7.35-2.92-8.55a3.27,3.27,0,0,0-4.45,2c-.66,1.83.18,4.07,1.18,5.62C419.22,401.22,423.31,403.8,423.32,403.8Z" style="fill:#263238"></path><path d="M79.47,428.74a12.85,12.85,0,0,0,3.77.42s-.57-1.76-.62-1.86c-.59-1.23-2.45-3.26-4-3.06a1.82,1.82,0,0,0-1.45,2.27A3.8,3.8,0,0,0,79.47,428.74Z" style="fill:#263238"></path><path d="M80.39,436.5a12.57,12.57,0,0,0,3.72-.59,31.68,31.68,0,0,0,1.45,4c.33.76.68,1.52,1,2.27l-.45-.64c-.89-1-3.22-2.49-4.62-1.9a1.8,1.8,0,0,0-.8,2.57,3.74,3.74,0,0,0,2.76,1.55,12,12,0,0,0,3.61-.55c.15.29.29.58.43.86.69,1.38,1.39,2.75,2,4.12.23.48.43,1,.64,1.45-.19-.29-.36-.52-.39-.56-.89-1-3.22-2.49-4.62-1.9a1.81,1.81,0,0,0-.8,2.57,3.8,3.8,0,0,0,2.77,1.56,11.52,11.52,0,0,0,3.51-.53c.2.5.4,1,.57,1.49s.23.66.32,1,.19.68.28,1c.16.65.32,1.33.46,2,.1.44.18.87.27,1.29-.22-.48-.67-1.41-.71-1.49-.73-1.15-2.81-2.95-4.29-2.58a1.82,1.82,0,0,0-1.18,2.42,3.8,3.8,0,0,0,2.5,2,12.63,12.63,0,0,0,3.74,0c.14.7.28,1.39.39,2.05.06.34.11.67.17,1h.94c-.07-.38-.14-.76-.22-1.17-.14-.72-.31-1.48-.49-2.27a19.69,19.69,0,0,0,2.09-1,13.51,13.51,0,0,0,3,2c-.27.67-.54,1.32-.81,1.93-.08.18-.16.35-.23.53h1l.07-.18c.28-.68.57-1.41.85-2.16a12.75,12.75,0,0,0,3.73.28,3.74,3.74,0,0,0,2.64-1.76,1.81,1.81,0,0,0-1-2.5c-1.45-.48-3.66,1.16-4.47,2.26,0,.06-.48.82-.75,1.3.11-.31.23-.6.34-.92.23-.63.44-1.27.67-2,.1-.33.21-.67.31-1s.18-.7.27-1c.2-.83.35-1.68.5-2.53a11.93,11.93,0,0,0,3.54.81,3.75,3.75,0,0,0,2.87-1.35,1.79,1.79,0,0,0-.61-2.61c-1.35-.7-3.78.59-4.75,1.55-.06.06-.67.83-1,1.25.08-.51.16-1,.23-1.55.18-1.51.33-3.05.48-4.58,0-.47.09-.94.14-1.41a12.39,12.39,0,0,0,3.66.86,3.75,3.75,0,0,0,2.88-1.35,1.8,1.8,0,0,0-.61-2.61c-1.36-.7-3.79.59-4.75,1.55-.07.07-1,1.18-1.17,1.47.11-1,.23-2.06.39-3.06a31.57,31.57,0,0,1,.87-4,13.1,13.1,0,0,0,3.68.86,3.75,3.75,0,0,0,2.88-1.35,1.79,1.79,0,0,0-.61-2.61c-1.35-.7-3.78.59-4.75,1.55-.07.07-1,1.26-1.18,1.49l.06-.23a23.05,23.05,0,0,1,1.6-3.81c.34-.68.71-1.31,1.09-1.92a11.89,11.89,0,0,0,3.48,1.23,3.77,3.77,0,0,0,3-1,1.8,1.8,0,0,0-.32-2.66c-1.27-.85-3.83.17-4.89,1-.06,0-.6.58-1,1l.51-.81c.64-1,1.28-1.8,1.86-2.54.33-.42.64-.79.93-1.13a12.22,12.22,0,0,0,3.64-.52,3.8,3.8,0,0,0,2.2-2.29,1.82,1.82,0,0,0-1.51-2.23c-1.52-.16-3.32,1.92-3.88,3.16,0,.11-.6,1.88-.57,1.88h0l-.92,1.07c-.59.73-1.25,1.56-1.91,2.51a31,31,0,0,0-2,3.17,22.54,22.54,0,0,0-1.7,3.82s0,0,0,0c0-.45,0-1.7,0-1.79-.18-1.35-1.31-3.86-2.81-4.14a1.8,1.8,0,0,0-2.08,1.7,3.78,3.78,0,0,0,1.45,2.83,12.64,12.64,0,0,0,3.42,1.56,32.08,32.08,0,0,0-1,4.14c-.14.82-.26,1.65-.37,2.48,0-.39,0-.74,0-.78-.18-1.35-1.31-3.86-2.81-4.14a1.8,1.8,0,0,0-2.08,1.7,3.75,3.75,0,0,0,1.45,2.82,11.91,11.91,0,0,0,3.31,1.53l-.12,1c-.18,1.53-.36,3.06-.57,4.55-.08.53-.18,1.05-.27,1.56,0-.34,0-.63,0-.67-.17-1.35-1.3-3.86-2.8-4.14a1.81,1.81,0,0,0-2.09,1.7A3.75,3.75,0,0,0,97.6,450a11.38,11.38,0,0,0,3.22,1.5c-.11.53-.22,1.06-.35,1.56-.1.34-.17.68-.28,1l-.33,1c-.23.63-.46,1.28-.7,1.89-.16.43-.33.83-.49,1.23.08-.52.22-1.55.23-1.64a7,7,0,0,0-.94-3.41,2.56,2.56,0,0,0,0-.39,1.81,1.81,0,0,0-2.21-1.54c-1.47.4-2.41,3-2.48,4.34,0,.08.05,1,.1,1.51-.08-.32-.15-.63-.23-1-.15-.65-.33-1.3-.51-2-.1-.34-.2-.67-.31-1s-.23-.69-.35-1c-.29-.8-.63-1.59-1-2.39a11.7,11.7,0,0,0,3.4-1.27A3.75,3.75,0,0,0,96,445.68a1.8,1.8,0,0,0-1.94-1.85c-1.52.17-2.84,2.58-3.11,3.92,0,.08-.11,1.06-.15,1.6-.22-.48-.43-1-.66-1.42-.68-1.37-1.41-2.73-2.13-4.09l-.66-1.25a12.59,12.59,0,0,0,3.53-1.31,3.79,3.79,0,0,0,1.66-2.71,1.8,1.8,0,0,0-2-1.84c-1.52.16-2.84,2.58-3.11,3.91,0,.1-.15,1.51-.17,1.87-.47-.92-.94-1.84-1.36-2.77a29.78,29.78,0,0,1-1.49-3.84A12.87,12.87,0,0,0,88,434.59a3.76,3.76,0,0,0,1.66-2.71,1.81,1.81,0,0,0-2-1.85c-1.52.17-2.83,2.58-3.11,3.92,0,.1-.16,1.62-.16,1.9,0-.08-.06-.16-.08-.23a22.77,22.77,0,0,1-.77-4.06c-.09-.76-.13-1.49-.15-2.2a12.12,12.12,0,0,0,3.58-.9A3.79,3.79,0,0,0,89,426a1.8,1.8,0,0,0-1.74-2.05c-1.52,0-3.1,2.25-3.52,3.55,0,.07-.17.81-.28,1.35,0-.32,0-.65,0-1,0-1.15.07-2.21.15-3.14,0-.53.09-1,.15-1.46a12,12,0,0,0,2.74-2.44,3.75,3.75,0,0,0,.57-3.12,1.8,1.8,0,0,0-2.48-1c-1.36.7-1.72,3.43-1.49,4.78,0,.11.53,1.89.55,1.88l0,0c-.06.43-.12.89-.17,1.4-.1.93-.19,2-.22,3.15a32,32,0,0,0,.09,3.74,24.06,24.06,0,0,0,.69,4.13s0,0,0,.05c-.24-.38-1-1.41-1-1.49-.89-1-3.22-2.49-4.62-1.9a1.8,1.8,0,0,0-.8,2.57A3.78,3.78,0,0,0,80.39,436.5Z" style="fill:#263238"></path><path d="M106.55,429.33s.49-1.78.51-1.9c.18-1.35-.25-4.07-1.62-4.73a1.81,1.81,0,0,0-2.46,1.09,3.79,3.79,0,0,0,.66,3.11A13,13,0,0,0,106.55,429.33Z" style="fill:#263238"></path></g></svg>
