<svg xmlns="http://www.w3.org/2000/svg" viewBox="0 0 750 500"><g id="freepik--background-simple--inject-34"><path d="M674.16,86.41l-1.84-3c-15.52-25.58-43.58-41-73.16-39.12a77.54,77.54,0,0,0-11.33,1.55c-26.89,5.76-50.3,26.1-60,52.15-5.71,15.32-7.3,33-18.13,45.12-14.09,15.83-38,16.33-59.05,15.67s-45-.09-59,15.8c-8.78,9.95-11.57,24.1-10.86,37.42,1.87,35.29,26.46,66.84,57.72,82.52s68.08,17.08,102.3,10.18c47.94-9.66,93.53-36.2,120.93-77.19S696.09,130.65,674.16,86.41Z" style="fill:#f5f5f5"></path><circle cx="157.08" cy="138.85" r="89.73" style="fill:#f5f5f5"></circle></g><g id="freepik--Floor--inject-34"><path d="M726.71,476.49c0,.14-157.48.26-351.69.26s-351.73-.12-351.73-.26,157.44-.26,351.73-.26S726.71,476.34,726.71,476.49Z" style="fill:#263238"></path></g><g id="freepik--Birds--inject-34"><path d="M562.86,59.67s-.72-.25-2-.54a16,16,0,0,0-5.66-.22,15.34,15.34,0,0,0-7.64,3.29,15.79,15.79,0,0,0-5.39,8.56l0,.1-.16.61-.23-.58a17,17,0,0,0-6.46-7.79,16.36,16.36,0,0,0-7.88-2.63,17.32,17.32,0,0,0-5.63.51c-1.3.35-2,.65-2,.61a2.28,2.28,0,0,1,.49-.24,11.92,11.92,0,0,1,1.47-.52,16.84,16.84,0,0,1,13.76,2,17.2,17.2,0,0,1,6.63,8l-.39,0,0-.1a16.11,16.11,0,0,1,5.56-8.76,15.3,15.3,0,0,1,7.84-3.29,15.62,15.62,0,0,1,5.74.35,14,14,0,0,1,1.5.47A2.71,2.71,0,0,1,562.86,59.67Z" style="fill:#263238"></path><path d="M657.88,85.78s-.4-.12-1.13-.26a8.89,8.89,0,0,0-3.1-.09,8.29,8.29,0,0,0-4.15,1.81,8.56,8.56,0,0,0-2.93,4.66l0,0-.15.62-.24-.58a9.34,9.34,0,0,0-3.51-4.26,9.09,9.09,0,0,0-4.29-1.45,9.61,9.61,0,0,0-3.09.26c-.71.17-1.1.33-1.11.29a1.21,1.21,0,0,1,.26-.14,5.37,5.37,0,0,1,.81-.31,9.23,9.23,0,0,1,3.14-.39,9.08,9.08,0,0,1,4.49,1.43,9.46,9.46,0,0,1,3.68,4.41l-.39,0v0a8.92,8.92,0,0,1,3.1-4.87,8.45,8.45,0,0,1,4.35-1.8,8.32,8.32,0,0,1,3.18.22,6.24,6.24,0,0,1,.82.28C657.79,85.72,657.88,85.76,657.88,85.78Z" style="fill:#263238"></path><path d="M603.65,90s-.38.43-1.07,1.21A26.29,26.29,0,0,0,600,94.78a25.85,25.85,0,0,0-3.89,13.79v.17l-.4,0a22.62,22.62,0,0,0-2.52-7.47,23.46,23.46,0,0,0-7.17-8,14.39,14.39,0,0,1-1.32-.92,2,2,0,0,1,.37.18c.24.14.61.32,1,.61a21.28,21.28,0,0,1,3.44,2.75,22.71,22.71,0,0,1,6.56,12.8l-.4,0v-.18a25.37,25.37,0,0,1,4.06-13.95,23.78,23.78,0,0,1,2.75-3.49c.36-.39.67-.65.87-.85A1.57,1.57,0,0,1,603.65,90Z" style="fill:#263238"></path></g><g id="freepik--solar-panels--inject-34"><polygon points="379.53 356.63 364.17 476.49 374.72 476.49 390.3 365.86 379.53 356.63" style="fill:#e0e0e0"></polygon><polygon points="364.17 335.88 360.86 346.08 428.31 476.49 657.64 476.15 663.15 466.69 558.42 422.88 364.17 335.88" style="fill:#e0e0e0"></polygon><polygon points="364.17 335.88 432.35 468.44 663.15 466.69 590.52 335.88 364.17 335.88" style="fill:#f5f5f5"></polygon><path d="M364.16,335.88l226.36-.23h.14l.07.12,72.65,130.79.21.39h-2.37l-228.87,1.69h-.12l-.06-.11-68-132.66c.78,1.5,26.66,51.66,68.37,132.47l-.18-.11,228.87-1.8h1.93l-.23.38L590.32,336l.2.12Z" style="fill:#263238"></path><path d="M392.18,351.94H380a2,2,0,0,1-1.77-1l-5.48-9.66a.69.69,0,0,1,.6-1h11.95a2.5,2.5,0,0,1,2.16,1.25l5.35,9.43A.7.7,0,0,1,392.18,351.94Z" style="fill:#455a64"></path><path d="M410.43,351.94h-12.2a2,2,0,0,1-1.77-1L391,341.25a.69.69,0,0,1,.6-1h11.95a2.5,2.5,0,0,1,2.16,1.25L411,350.9A.7.7,0,0,1,410.43,351.94Z" style="fill:#455a64"></path><path d="M427.92,351.94h-12.2a2,2,0,0,1-1.77-1l-5.48-9.66a.69.69,0,0,1,.6-1H421a2.48,2.48,0,0,1,2.16,1.25l5.36,9.43A.7.7,0,0,1,427.92,351.94Z" style="fill:#455a64"></path><path d="M445.33,351.94h-12.2a2,2,0,0,1-1.77-1l-5.48-9.66a.69.69,0,0,1,.6-1h11.95a2.5,2.5,0,0,1,2.16,1.25l5.35,9.43A.7.7,0,0,1,445.33,351.94Z" style="fill:#455a64"></path><path d="M399.07,366.1h-12.2a2,2,0,0,1-1.77-1l-5.48-9.66a.69.69,0,0,1,.6-1h11.95a2.51,2.51,0,0,1,2.16,1.25l5.35,9.44A.69.69,0,0,1,399.07,366.1Z" style="fill:#455a64"></path><path d="M416.94,366.1H404.73a2,2,0,0,1-1.77-1l-5.48-9.66a.69.69,0,0,1,.61-1H410a2.5,2.5,0,0,1,2.16,1.25l5.35,9.44A.69.69,0,0,1,416.94,366.1Z" style="fill:#455a64"></path><path d="M434.94,366.1H422.73a2,2,0,0,1-1.76-1l-5.48-9.66a.69.69,0,0,1,.6-1H428a2.48,2.48,0,0,1,2.16,1.25l5.35,9.44A.69.69,0,0,1,434.94,366.1Z" style="fill:#455a64"></path><path d="M452.53,366.1H440.32a2,2,0,0,1-1.77-1l-5.48-9.66a.69.69,0,0,1,.61-1h11.94a2.5,2.5,0,0,1,2.16,1.25l5.35,9.44A.69.69,0,0,1,452.53,366.1Z" style="fill:#455a64"></path><path d="M406.64,380.12H394.43a2,2,0,0,1-1.77-1l-5.48-9.66a.7.7,0,0,1,.61-1h11.94a2.48,2.48,0,0,1,2.16,1.26l5.35,9.43A.7.7,0,0,1,406.64,380.12Z" style="fill:#455a64"></path><path d="M424.5,380.12H412.29a2,2,0,0,1-1.76-1L405,369.43a.7.7,0,0,1,.61-1h11.94a2.48,2.48,0,0,1,2.16,1.26l5.35,9.43A.69.69,0,0,1,424.5,380.12Z" style="fill:#455a64"></path><path d="M442.5,380.12H430.3a2,2,0,0,1-1.77-1l-5.48-9.66a.7.7,0,0,1,.6-1h12a2.5,2.5,0,0,1,2.16,1.26l5.35,9.43A.7.7,0,0,1,442.5,380.12Z" style="fill:#455a64"></path><path d="M460.09,380.12H447.88a2,2,0,0,1-1.76-1l-5.49-9.66a.7.7,0,0,1,.61-1h11.94a2.47,2.47,0,0,1,2.16,1.26l5.35,9.43A.69.69,0,0,1,460.09,380.12Z" style="fill:#455a64"></path><path d="M414.2,394.14H402a2,2,0,0,1-1.76-1l-5.49-9.66a.7.7,0,0,1,.61-1h11.94a2.48,2.48,0,0,1,2.16,1.26l5.35,9.43A.69.69,0,0,1,414.2,394.14Z" style="fill:#455a64"></path><path d="M432.06,394.14h-12.2a2,2,0,0,1-1.77-1l-5.48-9.66a.69.69,0,0,1,.6-1h11.94a2.47,2.47,0,0,1,2.16,1.26l5.36,9.43A.7.7,0,0,1,432.06,394.14Z" style="fill:#455a64"></path><path d="M450.07,394.14H437.86a2,2,0,0,1-1.77-1l-5.48-9.66a.7.7,0,0,1,.61-1h11.94a2.48,2.48,0,0,1,2.16,1.26l5.35,9.43A.7.7,0,0,1,450.07,394.14Z" style="fill:#455a64"></path><path d="M467.65,394.14h-12.2a2,2,0,0,1-1.77-1l-5.48-9.66a.69.69,0,0,1,.6-1h11.94a2.47,2.47,0,0,1,2.16,1.26l5.36,9.43A.7.7,0,0,1,467.65,394.14Z" style="fill:#455a64"></path><path d="M421.76,408.16h-12.2a2,2,0,0,1-1.77-1l-5.48-9.66a.69.69,0,0,1,.6-1h11.94a2.47,2.47,0,0,1,2.16,1.26l5.36,9.43A.7.7,0,0,1,421.76,408.16Z" style="fill:#455a64"></path><path d="M439.62,408.16h-12.2a2.05,2.05,0,0,1-1.77-1l-5.48-9.66a.7.7,0,0,1,.6-1h12a2.5,2.5,0,0,1,2.16,1.26l5.35,9.43A.7.7,0,0,1,439.62,408.16Z" style="fill:#455a64"></path><path d="M457.63,408.16H445.42a2,2,0,0,1-1.76-1l-5.49-9.66a.7.7,0,0,1,.61-1h11.94a2.48,2.48,0,0,1,2.16,1.26l5.35,9.43A.69.69,0,0,1,457.63,408.16Z" style="fill:#455a64"></path><path d="M475.21,408.16H463a2.05,2.05,0,0,1-1.77-1l-5.48-9.66a.7.7,0,0,1,.6-1h11.95a2.48,2.48,0,0,1,2.16,1.26l5.35,9.43A.7.7,0,0,1,475.21,408.16Z" style="fill:#455a64"></path><path d="M429.32,422.17h-12.2a2,2,0,0,1-1.77-1l-5.48-9.65a.7.7,0,0,1,.6-1h11.95a2.51,2.51,0,0,1,2.16,1.25l5.35,9.44A.69.69,0,0,1,429.32,422.17Z" style="fill:#455a64"></path><path d="M447.19,422.17H435a2,2,0,0,1-1.77-1l-5.48-9.65a.7.7,0,0,1,.61-1h11.94a2.5,2.5,0,0,1,2.16,1.25l5.35,9.44A.69.69,0,0,1,447.19,422.17Z" style="fill:#455a64"></path><path d="M465.19,422.17H453a2,2,0,0,1-1.76-1l-5.48-9.65a.69.69,0,0,1,.6-1h11.94a2.48,2.48,0,0,1,2.16,1.25l5.35,9.44A.69.69,0,0,1,465.19,422.17Z" style="fill:#455a64"></path><path d="M482.78,422.17H470.57a2,2,0,0,1-1.77-1l-5.48-9.65a.7.7,0,0,1,.61-1h11.94A2.5,2.5,0,0,1,478,411.7l5.35,9.44A.69.69,0,0,1,482.78,422.17Z" style="fill:#455a64"></path><path d="M436.89,436.19H424.68a2,2,0,0,1-1.77-1l-5.48-9.66a.7.7,0,0,1,.61-1H430a2.48,2.48,0,0,1,2.16,1.26l5.35,9.43A.7.7,0,0,1,436.89,436.19Z" style="fill:#455a64"></path><path d="M454.75,436.19H442.54a2,2,0,0,1-1.76-1l-5.49-9.66a.7.7,0,0,1,.61-1h11.94a2.48,2.48,0,0,1,2.16,1.26l5.35,9.43A.69.69,0,0,1,454.75,436.19Z" style="fill:#455a64"></path><path d="M472.75,436.19h-12.2a2,2,0,0,1-1.77-1l-5.48-9.66a.7.7,0,0,1,.6-1h11.94a2.5,2.5,0,0,1,2.17,1.26l5.35,9.43A.7.7,0,0,1,472.75,436.19Z" style="fill:#455a64"></path><path d="M490.34,436.19H478.13a2,2,0,0,1-1.76-1l-5.49-9.66a.7.7,0,0,1,.61-1h11.94a2.48,2.48,0,0,1,2.16,1.26l5.35,9.43A.69.69,0,0,1,490.34,436.19Z" style="fill:#455a64"></path><path d="M444.45,450.21H432.24a2,2,0,0,1-1.76-1L425,439.52a.7.7,0,0,1,.61-1h11.94a2.48,2.48,0,0,1,2.16,1.26l5.35,9.43A.69.69,0,0,1,444.45,450.21Z" style="fill:#455a64"></path><path d="M462.31,450.21h-12.2a2,2,0,0,1-1.77-1l-5.48-9.66a.69.69,0,0,1,.6-1H455.4a2.47,2.47,0,0,1,2.16,1.26l5.35,9.43A.69.69,0,0,1,462.31,450.21Z" style="fill:#455a64"></path><path d="M480.31,450.21h-12.2a2,2,0,0,1-1.77-1l-5.48-9.66a.7.7,0,0,1,.61-1h11.94a2.48,2.48,0,0,1,2.16,1.26l5.35,9.43A.7.7,0,0,1,480.31,450.21Z" style="fill:#455a64"></path><path d="M497.9,450.21H485.7a2,2,0,0,1-1.77-1l-5.48-9.66a.69.69,0,0,1,.6-1H491a2.47,2.47,0,0,1,2.16,1.26l5.36,9.43A.7.7,0,0,1,497.9,450.21Z" style="fill:#455a64"></path><path d="M452,464.23H439.8a2,2,0,0,1-1.76-1l-5.48-9.66a.69.69,0,0,1,.6-1H445.1a2.47,2.47,0,0,1,2.16,1.26l5.35,9.43A.69.69,0,0,1,452,464.23Z" style="fill:#455a64"></path><path d="M469.87,464.23h-12.2a2.05,2.05,0,0,1-1.77-1l-5.48-9.66a.7.7,0,0,1,.6-1h12a2.5,2.5,0,0,1,2.16,1.26l5.35,9.43A.7.7,0,0,1,469.87,464.23Z" style="fill:#455a64"></path><path d="M487.88,464.23H475.67a2.06,2.06,0,0,1-1.77-1l-5.48-9.66a.7.7,0,0,1,.61-1H481a2.48,2.48,0,0,1,2.16,1.26l5.35,9.43A.7.7,0,0,1,487.88,464.23Z" style="fill:#455a64"></path><path d="M505.46,464.23h-12.2a2.05,2.05,0,0,1-1.77-1L486,453.54a.7.7,0,0,1,.6-1h11.95a2.5,2.5,0,0,1,2.16,1.26l5.35,9.43A.7.7,0,0,1,505.46,464.23Z" style="fill:#455a64"></path><path d="M465.9,351.94H453.69a2,2,0,0,1-1.77-1l-5.48-9.66a.69.69,0,0,1,.61-1H459a2.5,2.5,0,0,1,2.16,1.25l5.35,9.43A.7.7,0,0,1,465.9,351.94Z" style="fill:#455a64"></path><path d="M484.15,351.94H471.94a2,2,0,0,1-1.77-1l-5.48-9.66a.69.69,0,0,1,.61-1h11.94a2.5,2.5,0,0,1,2.16,1.25l5.35,9.43A.7.7,0,0,1,484.15,351.94Z" style="fill:#455a64"></path><path d="M501.63,351.94h-12.2a2,2,0,0,1-1.77-1l-5.48-9.66a.69.69,0,0,1,.6-1h12a2.51,2.51,0,0,1,2.16,1.25l5.35,9.43A.7.7,0,0,1,501.63,351.94Z" style="fill:#455a64"></path><path d="M519,351.94h-12.2a2,2,0,0,1-1.77-1l-5.48-9.66a.69.69,0,0,1,.6-1h11.95a2.5,2.5,0,0,1,2.16,1.25l5.35,9.43A.7.7,0,0,1,519,351.94Z" style="fill:#455a64"></path><path d="M472.78,366.1h-12.2a2,2,0,0,1-1.77-1l-5.48-9.66a.69.69,0,0,1,.6-1h11.95a2.5,2.5,0,0,1,2.16,1.25l5.35,9.44A.69.69,0,0,1,472.78,366.1Z" style="fill:#455a64"></path><path d="M490.65,366.1H478.44a2,2,0,0,1-1.77-1l-5.48-9.66a.69.69,0,0,1,.61-1h11.94a2.5,2.5,0,0,1,2.16,1.25l5.35,9.44A.69.69,0,0,1,490.65,366.1Z" style="fill:#455a64"></path><path d="M508.65,366.1h-12.2a2,2,0,0,1-1.77-1l-5.48-9.66a.69.69,0,0,1,.6-1h11.94a2.48,2.48,0,0,1,2.16,1.25l5.36,9.44A.69.69,0,0,1,508.65,366.1Z" style="fill:#455a64"></path><path d="M526.24,366.1H514a2,2,0,0,1-1.76-1l-5.49-9.66a.69.69,0,0,1,.61-1h11.94a2.5,2.5,0,0,1,2.16,1.25l5.35,9.44A.69.69,0,0,1,526.24,366.1Z" style="fill:#455a64"></path><path d="M480.35,380.12H468.14a2,2,0,0,1-1.77-1l-5.48-9.66a.7.7,0,0,1,.61-1h11.94a2.48,2.48,0,0,1,2.16,1.26l5.35,9.43A.7.7,0,0,1,480.35,380.12Z" style="fill:#455a64"></path><path d="M498.21,380.12H486a2,2,0,0,1-1.76-1l-5.48-9.66a.69.69,0,0,1,.6-1H491.3a2.47,2.47,0,0,1,2.16,1.26l5.35,9.43A.69.69,0,0,1,498.21,380.12Z" style="fill:#455a64"></path><path d="M516.21,380.12H504a2,2,0,0,1-1.77-1l-5.48-9.66a.7.7,0,0,1,.6-1h11.95a2.48,2.48,0,0,1,2.16,1.26l5.35,9.43A.7.7,0,0,1,516.21,380.12Z" style="fill:#455a64"></path><path d="M533.8,380.12H521.59a2,2,0,0,1-1.76-1l-5.48-9.66a.69.69,0,0,1,.6-1h11.94a2.47,2.47,0,0,1,2.16,1.26l5.35,9.43A.69.69,0,0,1,533.8,380.12Z" style="fill:#455a64"></path><path d="M487.91,394.14H475.7a2,2,0,0,1-1.76-1l-5.49-9.66a.7.7,0,0,1,.61-1H481a2.47,2.47,0,0,1,2.16,1.26l5.35,9.43A.69.69,0,0,1,487.91,394.14Z" style="fill:#455a64"></path><path d="M505.77,394.14h-12.2a2,2,0,0,1-1.77-1l-5.48-9.66a.69.69,0,0,1,.6-1h11.94a2.47,2.47,0,0,1,2.16,1.26l5.36,9.43A.7.7,0,0,1,505.77,394.14Z" style="fill:#455a64"></path><path d="M523.78,394.14H511.57a2,2,0,0,1-1.77-1l-5.48-9.66a.7.7,0,0,1,.61-1h11.94a2.48,2.48,0,0,1,2.16,1.26l5.35,9.43A.7.7,0,0,1,523.78,394.14Z" style="fill:#455a64"></path><path d="M541.36,394.14h-12.2a2,2,0,0,1-1.77-1l-5.48-9.66a.7.7,0,0,1,.6-1h11.94a2.47,2.47,0,0,1,2.16,1.26L542,393.1A.7.7,0,0,1,541.36,394.14Z" style="fill:#455a64"></path><path d="M495.47,408.16h-12.2a2,2,0,0,1-1.77-1L476,397.47a.69.69,0,0,1,.6-1h11.94a2.47,2.47,0,0,1,2.16,1.26l5.36,9.43A.7.7,0,0,1,495.47,408.16Z" style="fill:#455a64"></path><path d="M513.33,408.16h-12.2a2.05,2.05,0,0,1-1.77-1l-5.48-9.66a.7.7,0,0,1,.6-1h11.95a2.48,2.48,0,0,1,2.16,1.26l5.35,9.43A.7.7,0,0,1,513.33,408.16Z" style="fill:#455a64"></path><path d="M531.34,408.16H519.13a2,2,0,0,1-1.76-1l-5.49-9.66a.7.7,0,0,1,.61-1h11.94a2.48,2.48,0,0,1,2.16,1.26l5.35,9.43A.69.69,0,0,1,531.34,408.16Z" style="fill:#455a64"></path><path d="M548.92,408.16h-12.2a2.05,2.05,0,0,1-1.77-1l-5.48-9.66a.7.7,0,0,1,.6-1H542a2.48,2.48,0,0,1,2.16,1.26l5.35,9.43A.7.7,0,0,1,548.92,408.16Z" style="fill:#455a64"></path><path d="M503,422.17h-12.2a2,2,0,0,1-1.77-1l-5.48-9.65a.7.7,0,0,1,.6-1h11.95a2.5,2.5,0,0,1,2.16,1.25l5.35,9.44A.69.69,0,0,1,503,422.17Z" style="fill:#455a64"></path><path d="M520.9,422.17H508.69a2,2,0,0,1-1.77-1l-5.48-9.65a.7.7,0,0,1,.61-1H514a2.5,2.5,0,0,1,2.16,1.25l5.35,9.44A.69.69,0,0,1,520.9,422.17Z" style="fill:#455a64"></path><path d="M538.9,422.17H526.7a2,2,0,0,1-1.77-1l-5.48-9.65a.69.69,0,0,1,.6-1H532a2.48,2.48,0,0,1,2.16,1.25l5.36,9.44A.69.69,0,0,1,538.9,422.17Z" style="fill:#455a64"></path><path d="M556.49,422.17H544.28a2,2,0,0,1-1.77-1L537,411.49a.7.7,0,0,1,.61-1h11.94a2.5,2.5,0,0,1,2.16,1.25l5.35,9.44A.69.69,0,0,1,556.49,422.17Z" style="fill:#455a64"></path><path d="M510.6,436.19H498.39a2,2,0,0,1-1.77-1l-5.48-9.66a.7.7,0,0,1,.61-1h11.94a2.48,2.48,0,0,1,2.16,1.26l5.35,9.43A.7.7,0,0,1,510.6,436.19Z" style="fill:#455a64"></path><path d="M528.46,436.19H516.25a2,2,0,0,1-1.76-1L509,425.5a.7.7,0,0,1,.61-1h11.94a2.47,2.47,0,0,1,2.16,1.26l5.35,9.43A.69.69,0,0,1,528.46,436.19Z" style="fill:#455a64"></path><path d="M546.46,436.19h-12.2a2,2,0,0,1-1.77-1L527,425.5a.7.7,0,0,1,.6-1h11.95a2.5,2.5,0,0,1,2.16,1.26l5.35,9.43A.7.7,0,0,1,546.46,436.19Z" style="fill:#455a64"></path><path d="M564.05,436.19H551.84a2,2,0,0,1-1.76-1l-5.48-9.66a.69.69,0,0,1,.6-1h11.94a2.47,2.47,0,0,1,2.16,1.26l5.35,9.43A.69.69,0,0,1,564.05,436.19Z" style="fill:#455a64"></path><path d="M518.16,450.21H506a2,2,0,0,1-1.76-1l-5.49-9.66a.7.7,0,0,1,.61-1h11.94a2.47,2.47,0,0,1,2.16,1.26l5.35,9.43A.69.69,0,0,1,518.16,450.21Z" style="fill:#455a64"></path><path d="M536,450.21h-12.2a2,2,0,0,1-1.77-1l-5.48-9.66a.69.69,0,0,1,.6-1h11.94a2.47,2.47,0,0,1,2.16,1.26l5.36,9.43A.7.7,0,0,1,536,450.21Z" style="fill:#455a64"></path><path d="M554,450.21H541.82a2,2,0,0,1-1.77-1l-5.48-9.66a.7.7,0,0,1,.61-1h11.94a2.48,2.48,0,0,1,2.16,1.26l5.35,9.43A.7.7,0,0,1,554,450.21Z" style="fill:#455a64"></path><path d="M571.61,450.21h-12.2a2,2,0,0,1-1.77-1l-5.48-9.66a.69.69,0,0,1,.6-1H564.7a2.47,2.47,0,0,1,2.16,1.26l5.36,9.43A.7.7,0,0,1,571.61,450.21Z" style="fill:#455a64"></path><path d="M525.72,464.23h-12.2a2,2,0,0,1-1.77-1l-5.48-9.66a.69.69,0,0,1,.6-1h11.94a2.47,2.47,0,0,1,2.16,1.26l5.36,9.43A.7.7,0,0,1,525.72,464.23Z" style="fill:#455a64"></path><path d="M543.58,464.23h-12.2a2.05,2.05,0,0,1-1.77-1l-5.48-9.66a.7.7,0,0,1,.6-1h11.95a2.48,2.48,0,0,1,2.16,1.26l5.35,9.43A.7.7,0,0,1,543.58,464.23Z" style="fill:#455a64"></path><path d="M561.59,464.23H549.38a2,2,0,0,1-1.76-1l-5.49-9.66a.7.7,0,0,1,.61-1h11.94a2.48,2.48,0,0,1,2.16,1.26l5.35,9.43A.69.69,0,0,1,561.59,464.23Z" style="fill:#455a64"></path><path d="M579.17,464.23H567a2.05,2.05,0,0,1-1.77-1l-5.48-9.66a.7.7,0,0,1,.6-1h11.95a2.48,2.48,0,0,1,2.16,1.26l5.35,9.43A.7.7,0,0,1,579.17,464.23Z" style="fill:#455a64"></path><path d="M539.61,351.94H527.4a2,2,0,0,1-1.77-1l-5.48-9.66a.69.69,0,0,1,.61-1H532.7a2.5,2.5,0,0,1,2.16,1.25l5.35,9.43A.7.7,0,0,1,539.61,351.94Z" style="fill:#455a64"></path><path d="M557.86,351.94H545.65a2,2,0,0,1-1.77-1l-5.48-9.66a.69.69,0,0,1,.61-1H551a2.5,2.5,0,0,1,2.16,1.25l5.35,9.43A.7.7,0,0,1,557.86,351.94Z" style="fill:#455a64"></path><path d="M575.34,351.94h-12.2a2,2,0,0,1-1.77-1l-5.48-9.66a.69.69,0,0,1,.6-1h12a2.51,2.51,0,0,1,2.16,1.25L576,350.9A.7.7,0,0,1,575.34,351.94Z" style="fill:#455a64"></path><path d="M592.76,351.94H580.55a2,2,0,0,1-1.77-1l-5.48-9.66a.69.69,0,0,1,.61-1h11.94a2.5,2.5,0,0,1,2.16,1.25l5.35,9.43A.7.7,0,0,1,592.76,351.94Z" style="fill:#455a64"></path><path d="M546.5,366.1H534.29a2,2,0,0,1-1.77-1L527,355.41a.69.69,0,0,1,.61-1h11.94a2.5,2.5,0,0,1,2.16,1.25l5.35,9.44A.69.69,0,0,1,546.5,366.1Z" style="fill:#455a64"></path><path d="M564.36,366.1H552.15a2,2,0,0,1-1.76-1l-5.49-9.66a.69.69,0,0,1,.61-1h11.94a2.5,2.5,0,0,1,2.16,1.25l5.35,9.44A.69.69,0,0,1,564.36,366.1Z" style="fill:#455a64"></path><path d="M582.36,366.1h-12.2a2,2,0,0,1-1.77-1l-5.48-9.66a.69.69,0,0,1,.6-1h11.94a2.48,2.48,0,0,1,2.16,1.25l5.36,9.44A.69.69,0,0,1,582.36,366.1Z" style="fill:#455a64"></path><path d="M600,366.1H587.74a2,2,0,0,1-1.76-1l-5.49-9.66a.69.69,0,0,1,.61-1H593a2.5,2.5,0,0,1,2.16,1.25l5.35,9.44A.69.69,0,0,1,600,366.1Z" style="fill:#455a64"></path><path d="M554.06,380.12H541.85a2,2,0,0,1-1.76-1l-5.49-9.66a.7.7,0,0,1,.61-1h11.94a2.48,2.48,0,0,1,2.16,1.26l5.35,9.43A.69.69,0,0,1,554.06,380.12Z" style="fill:#455a64"></path><path d="M571.92,380.12H559.71a2,2,0,0,1-1.76-1l-5.48-9.66a.69.69,0,0,1,.6-1H565a2.47,2.47,0,0,1,2.16,1.26l5.35,9.43A.69.69,0,0,1,571.92,380.12Z" style="fill:#455a64"></path><path d="M589.92,380.12h-12.2a2,2,0,0,1-1.77-1l-5.48-9.66a.7.7,0,0,1,.6-1H583a2.48,2.48,0,0,1,2.16,1.26l5.35,9.43A.7.7,0,0,1,589.92,380.12Z" style="fill:#455a64"></path><path d="M607.51,380.12h-12.2a2,2,0,0,1-1.77-1l-5.48-9.66a.69.69,0,0,1,.6-1H600.6a2.47,2.47,0,0,1,2.16,1.26l5.36,9.43A.7.7,0,0,1,607.51,380.12Z" style="fill:#455a64"></path><path d="M561.62,394.14H549.41a2,2,0,0,1-1.76-1l-5.48-9.66a.69.69,0,0,1,.6-1h11.94a2.47,2.47,0,0,1,2.16,1.26l5.35,9.43A.69.69,0,0,1,561.62,394.14Z" style="fill:#455a64"></path><path d="M579.48,394.14h-12.2a2,2,0,0,1-1.77-1L560,383.45a.7.7,0,0,1,.6-1h12a2.5,2.5,0,0,1,2.16,1.26l5.35,9.43A.7.7,0,0,1,579.48,394.14Z" style="fill:#455a64"></path><path d="M597.49,394.14H585.28a2,2,0,0,1-1.77-1L578,383.45a.7.7,0,0,1,.61-1h11.94a2.48,2.48,0,0,1,2.16,1.26l5.35,9.43A.7.7,0,0,1,597.49,394.14Z" style="fill:#455a64"></path><path d="M615.07,394.14h-12.2a2,2,0,0,1-1.77-1l-5.48-9.66a.7.7,0,0,1,.6-1h11.95a2.5,2.5,0,0,1,2.16,1.26l5.35,9.43A.7.7,0,0,1,615.07,394.14Z" style="fill:#455a64"></path><path d="M569.18,408.16H557a2.05,2.05,0,0,1-1.77-1l-5.48-9.66a.7.7,0,0,1,.6-1h11.95a2.5,2.5,0,0,1,2.16,1.26l5.35,9.43A.7.7,0,0,1,569.18,408.16Z" style="fill:#455a64"></path><path d="M587.05,408.16H574.84a2.05,2.05,0,0,1-1.77-1l-5.48-9.66a.7.7,0,0,1,.61-1h11.94a2.48,2.48,0,0,1,2.16,1.26l5.35,9.43A.7.7,0,0,1,587.05,408.16Z" style="fill:#455a64"></path><path d="M605.05,408.16H592.84a2,2,0,0,1-1.76-1l-5.48-9.66a.69.69,0,0,1,.6-1h11.94a2.47,2.47,0,0,1,2.16,1.26l5.35,9.43A.69.69,0,0,1,605.05,408.16Z" style="fill:#455a64"></path><path d="M622.64,408.16H610.43a2.05,2.05,0,0,1-1.77-1l-5.48-9.66a.7.7,0,0,1,.61-1h11.94a2.48,2.48,0,0,1,2.16,1.26l5.35,9.43A.7.7,0,0,1,622.64,408.16Z" style="fill:#455a64"></path><path d="M576.74,422.17h-12.2a2,2,0,0,1-1.77-1l-5.48-9.65a.7.7,0,0,1,.61-1h11.94A2.5,2.5,0,0,1,572,411.7l5.35,9.44A.69.69,0,0,1,576.74,422.17Z" style="fill:#455a64"></path><path d="M594.61,422.17H582.4a2,2,0,0,1-1.76-1l-5.49-9.65a.7.7,0,0,1,.61-1H587.7a2.5,2.5,0,0,1,2.16,1.25l5.35,9.44A.69.69,0,0,1,594.61,422.17Z" style="fill:#455a64"></path><path d="M612.61,422.17h-12.2a2,2,0,0,1-1.77-1l-5.48-9.65a.69.69,0,0,1,.6-1H605.7a2.48,2.48,0,0,1,2.16,1.25l5.36,9.44A.69.69,0,0,1,612.61,422.17Z" style="fill:#455a64"></path><path d="M630.2,422.17H618a2,2,0,0,1-1.76-1l-5.49-9.65a.7.7,0,0,1,.61-1h11.94a2.5,2.5,0,0,1,2.16,1.25l5.35,9.44A.69.69,0,0,1,630.2,422.17Z" style="fill:#455a64"></path><path d="M584.31,436.19H572.1a2,2,0,0,1-1.76-1l-5.49-9.66a.7.7,0,0,1,.61-1H577.4a2.48,2.48,0,0,1,2.16,1.26l5.35,9.43A.7.7,0,0,1,584.31,436.19Z" style="fill:#455a64"></path><path d="M602.17,436.19H590a2,2,0,0,1-1.76-1l-5.48-9.66a.69.69,0,0,1,.6-1h11.94a2.47,2.47,0,0,1,2.16,1.26l5.35,9.43A.69.69,0,0,1,602.17,436.19Z" style="fill:#455a64"></path><path d="M620.17,436.19H608a2,2,0,0,1-1.77-1l-5.48-9.66a.7.7,0,0,1,.6-1h11.95a2.48,2.48,0,0,1,2.16,1.26l5.35,9.43A.7.7,0,0,1,620.17,436.19Z" style="fill:#455a64"></path><path d="M637.76,436.19h-12.2a2,2,0,0,1-1.77-1l-5.48-9.66a.69.69,0,0,1,.6-1h11.94a2.47,2.47,0,0,1,2.16,1.26l5.36,9.43A.7.7,0,0,1,637.76,436.19Z" style="fill:#455a64"></path><path d="M591.87,450.21H579.66a2,2,0,0,1-1.76-1l-5.48-9.66a.69.69,0,0,1,.6-1H585a2.47,2.47,0,0,1,2.16,1.26l5.35,9.43A.69.69,0,0,1,591.87,450.21Z" style="fill:#455a64"></path><path d="M609.73,450.21h-12.2a2,2,0,0,1-1.77-1l-5.48-9.66a.7.7,0,0,1,.6-1h11.94a2.47,2.47,0,0,1,2.16,1.26l5.36,9.43A.7.7,0,0,1,609.73,450.21Z" style="fill:#455a64"></path><path d="M627.74,450.21H615.53a2,2,0,0,1-1.77-1l-5.48-9.66a.7.7,0,0,1,.61-1h11.94a2.48,2.48,0,0,1,2.16,1.26l5.35,9.43A.7.7,0,0,1,627.74,450.21Z" style="fill:#455a64"></path><path d="M645.32,450.21h-12.2a2,2,0,0,1-1.77-1l-5.48-9.66a.7.7,0,0,1,.6-1h11.95a2.5,2.5,0,0,1,2.16,1.26l5.35,9.43A.7.7,0,0,1,645.32,450.21Z" style="fill:#455a64"></path><path d="M599.43,464.23h-12.2a2.05,2.05,0,0,1-1.77-1L580,453.54a.69.69,0,0,1,.6-1h11.94a2.47,2.47,0,0,1,2.16,1.26l5.36,9.43A.7.7,0,0,1,599.43,464.23Z" style="fill:#455a64"></path><path d="M617.29,464.23h-12.2a2.05,2.05,0,0,1-1.77-1l-5.48-9.66a.7.7,0,0,1,.6-1h11.95a2.48,2.48,0,0,1,2.16,1.26l5.35,9.43A.7.7,0,0,1,617.29,464.23Z" style="fill:#455a64"></path><path d="M635.3,464.23H623.09a2,2,0,0,1-1.76-1l-5.48-9.66a.69.69,0,0,1,.6-1h11.94a2.47,2.47,0,0,1,2.16,1.26l5.35,9.43A.69.69,0,0,1,635.3,464.23Z" style="fill:#455a64"></path><path d="M652.89,464.23H640.68a2.05,2.05,0,0,1-1.77-1l-5.48-9.66a.7.7,0,0,1,.61-1H646a2.48,2.48,0,0,1,2.16,1.26l5.35,9.43A.7.7,0,0,1,652.89,464.23Z" style="fill:#455a64"></path><path d="M392.88,380.12l212.21,84.11h48.19a.8.8,0,0,0,.31-1.54L374.72,346.08Z" style="fill:#fff;opacity:0.30000000000000004"></path><polyline points="411.13 340.22 641.6 440.76 628.43 417.97 438.43 340.22 409.07 340.22" style="fill:#fff;opacity:0.30000000000000004"></polyline><path d="M663.15,466.69s-.1.21-.33.61l-1.05,1.84-4.26,7.39,0,0h0l-182.29.18h-47l-.07-.14-48.2-93.37-14-27.28c-1.62-3.19-2.88-5.65-3.74-7.32l-.95-1.9c-.22-.43-.31-.65-.31-.65l.35.63,1,1.88c.88,1.66,2.16,4.11,3.82,7.28,3.31,6.36,8.12,15.62,14.16,27.21l48.36,93.29-.23-.14h46.84l182.29.17-.08,0c1.94-3.27,3.37-5.71,4.34-7.34.47-.81.83-1.41,1.08-1.82S663.15,466.69,663.15,466.69Z" style="fill:#263238"></path><path d="M428.31,476.49a20.54,20.54,0,0,1,1.79-4.14,19.69,19.69,0,0,1,2.25-3.91,19.49,19.49,0,0,1-1.78,4.14A20,20,0,0,1,428.31,476.49Z" style="fill:#263238"></path><polygon points="139.21 356.51 122.99 476.25 133.55 476.33 149.92 365.82 139.21 356.51" style="fill:#e0e0e0"></polygon><polygon points="123.99 335.66 120.61 345.83 187.14 476.71 417.32 476.55 422.04 468.59 317.63 424.04 123.99 335.66" style="fill:#e0e0e0"></polygon><polygon points="123.99 335.66 191.23 468.7 422.04 468.59 350.35 337.27 123.99 335.66" style="fill:#f5f5f5"></polygon><path d="M124,335.66,350.35,337h.14l.07.12c21.9,40.12,46.18,84.57,71.71,131.31l.21.38h-2.37l-228.88.06h-.13l0-.12L124,335.66,191.42,468.6l-.19-.11,228.87-.16H422l-.23.39L350.14,337.39l.2.12Z" style="fill:#263238"></path><path d="M151.9,351.92l-12.21-.09a2,2,0,0,1-1.76-1l-5.41-9.7a.7.7,0,0,1,.61-1l11.94.09a2.47,2.47,0,0,1,2.15,1.27l5.29,9.47A.7.7,0,0,1,151.9,351.92Z" style="fill:#455a64"></path><path d="M170.15,352.05,157.94,352a2,2,0,0,1-1.76-1l-5.41-9.7a.7.7,0,0,1,.61-1l11.94.09a2.47,2.47,0,0,1,2.15,1.27l5.29,9.47A.7.7,0,0,1,170.15,352.05Z" style="fill:#455a64"></path><path d="M187.63,352.17l-12.2-.09a2,2,0,0,1-1.76-1l-5.41-9.7a.69.69,0,0,1,.61-1l11.94.08a2.49,2.49,0,0,1,2.15,1.28l5.29,9.47A.7.7,0,0,1,187.63,352.17Z" style="fill:#455a64"></path><path d="M205.05,352.3l-12.21-.09a2.06,2.06,0,0,1-1.76-1l-5.41-9.7a.7.7,0,0,1,.61-1l11.94.09a2.47,2.47,0,0,1,2.15,1.27l5.29,9.47A.7.7,0,0,1,205.05,352.3Z" style="fill:#455a64"></path><path d="M158.69,366.12,146.48,366a2.06,2.06,0,0,1-1.76-1l-5.41-9.7a.7.7,0,0,1,.61-1l11.94.09a2.45,2.45,0,0,1,2.15,1.27l5.29,9.47A.69.69,0,0,1,158.69,366.12Z" style="fill:#455a64"></path><path d="M176.55,366.25l-12.21-.09a2,2,0,0,1-1.76-1l-5.41-9.7a.69.69,0,0,1,.61-1l11.94.09a2.45,2.45,0,0,1,2.15,1.27l5.29,9.47A.69.69,0,0,1,176.55,366.25Z" style="fill:#455a64"></path><path d="M194.55,366.38l-12.2-.09a2,2,0,0,1-1.76-1l-5.42-9.7a.7.7,0,0,1,.62-1l11.94.08a2.51,2.51,0,0,1,2.15,1.28l5.28,9.47A.69.69,0,0,1,194.55,366.38Z" style="fill:#455a64"></path><path d="M212.14,366.51l-12.21-.09a2,2,0,0,1-1.76-1l-5.41-9.7a.69.69,0,0,1,.61-1l11.94.08a2.47,2.47,0,0,1,2.15,1.27l5.29,9.47A.7.7,0,0,1,212.14,366.51Z" style="fill:#455a64"></path><path d="M166.15,380.2l-12.21-.09a2,2,0,0,1-1.76-1l-5.41-9.7a.7.7,0,0,1,.61-1l11.94.09a2.47,2.47,0,0,1,2.15,1.27l5.29,9.47A.7.7,0,0,1,166.15,380.2Z" style="fill:#455a64"></path><path d="M184,380.32l-12.21-.08a2.05,2.05,0,0,1-1.76-1.05l-5.41-9.69a.7.7,0,0,1,.61-1l11.95.09a2.48,2.48,0,0,1,2.15,1.27l5.28,9.47A.69.69,0,0,1,184,380.32Z" style="fill:#455a64"></path><path d="M202,380.45l-12.2-.09a2,2,0,0,1-1.76-1l-5.41-9.7a.69.69,0,0,1,.61-1l11.94.09a2.48,2.48,0,0,1,2.15,1.27l5.29,9.47A.7.7,0,0,1,202,380.45Z" style="fill:#455a64"></path><path d="M219.6,380.58l-12.21-.09a2,2,0,0,1-1.76-1l-5.41-9.7a.69.69,0,0,1,.61-1l11.95.08a2.49,2.49,0,0,1,2.15,1.28l5.28,9.46A.7.7,0,0,1,219.6,380.58Z" style="fill:#455a64"></path><path d="M173.61,394.27l-12.21-.09a2,2,0,0,1-1.76-1l-5.41-9.7a.69.69,0,0,1,.61-1l11.95.08a2.5,2.5,0,0,1,2.15,1.27l5.28,9.47A.7.7,0,0,1,173.61,394.27Z" style="fill:#455a64"></path><path d="M191.47,394.39l-12.2-.08a2,2,0,0,1-1.76-1l-5.42-9.7a.7.7,0,0,1,.62-1l11.94.09a2.5,2.5,0,0,1,2.15,1.27l5.28,9.47A.69.69,0,0,1,191.47,394.39Z" style="fill:#455a64"></path><path d="M209.48,394.52l-12.21-.08a2.05,2.05,0,0,1-1.76-1.05l-5.41-9.69a.7.7,0,0,1,.61-1l11.94.09A2.45,2.45,0,0,1,204.8,384l5.29,9.47A.69.69,0,0,1,209.48,394.52Z" style="fill:#455a64"></path><path d="M227.06,394.65l-12.2-.09a2,2,0,0,1-1.76-1l-5.42-9.7a.69.69,0,0,1,.62-1l11.94.08a2.51,2.51,0,0,1,2.15,1.28l5.28,9.47A.69.69,0,0,1,227.06,394.65Z" style="fill:#455a64"></path><path d="M181.07,408.34l-12.2-.09a2,2,0,0,1-1.76-1l-5.42-9.7a.69.69,0,0,1,.62-1l11.94.08a2.51,2.51,0,0,1,2.15,1.28l5.28,9.46A.7.7,0,0,1,181.07,408.34Z" style="fill:#455a64"></path><path d="M198.93,408.47l-12.2-.09a2,2,0,0,1-1.76-1l-5.41-9.7a.7.7,0,0,1,.61-1l11.94.09a2.49,2.49,0,0,1,2.15,1.27l5.29,9.47A.7.7,0,0,1,198.93,408.47Z" style="fill:#455a64"></path><path d="M216.94,408.59l-12.21-.08a2.06,2.06,0,0,1-1.76-1l-5.41-9.7a.7.7,0,0,1,.61-1l11.94.09a2.47,2.47,0,0,1,2.15,1.27l5.29,9.47A.69.69,0,0,1,216.94,408.59Z" style="fill:#455a64"></path><path d="M234.52,408.72l-12.2-.09a2,2,0,0,1-1.76-1l-5.41-9.7a.69.69,0,0,1,.61-1l11.94.08a2.51,2.51,0,0,1,2.15,1.28l5.29,9.47A.7.7,0,0,1,234.52,408.72Z" style="fill:#455a64"></path><path d="M188.53,422.41l-12.2-.09a2,2,0,0,1-1.76-1l-5.41-9.7a.69.69,0,0,1,.61-1l11.94.08a2.49,2.49,0,0,1,2.15,1.28l5.29,9.47A.7.7,0,0,1,188.53,422.41Z" style="fill:#455a64"></path><path d="M206.4,422.54l-12.21-.09a2,2,0,0,1-1.76-1l-5.41-9.7a.69.69,0,0,1,.61-1l11.94.08a2.47,2.47,0,0,1,2.15,1.27L207,421.5A.7.7,0,0,1,206.4,422.54Z" style="fill:#455a64"></path><path d="M224.4,422.67l-12.21-.09a2,2,0,0,1-1.76-1l-5.41-9.7a.7.7,0,0,1,.61-1l12,.09a2.5,2.5,0,0,1,2.15,1.27l5.28,9.47A.7.7,0,0,1,224.4,422.67Z" style="fill:#455a64"></path><path d="M242,422.79l-12.21-.09a2,2,0,0,1-1.76-1l-5.41-9.7a.69.69,0,0,1,.61-1l11.94.09a2.45,2.45,0,0,1,2.15,1.27l5.29,9.47A.69.69,0,0,1,242,422.79Z" style="fill:#455a64"></path><path d="M196,436.48l-12.21-.09a2,2,0,0,1-1.76-1l-5.41-9.7a.69.69,0,0,1,.61-1l11.94.09a2.45,2.45,0,0,1,2.15,1.27l5.29,9.47A.69.69,0,0,1,196,436.48Z" style="fill:#455a64"></path><path d="M213.86,436.61l-12.21-.09a2,2,0,0,1-1.76-1l-5.41-9.7a.69.69,0,0,1,.61-1l11.94.08a2.48,2.48,0,0,1,2.15,1.28l5.29,9.46A.7.7,0,0,1,213.86,436.61Z" style="fill:#455a64"></path><path d="M231.86,436.74l-12.2-.09a2,2,0,0,1-1.76-1l-5.42-9.7a.69.69,0,0,1,.62-1L225,425a2.5,2.5,0,0,1,2.15,1.27l5.28,9.47A.7.7,0,0,1,231.86,436.74Z" style="fill:#455a64"></path><path d="M249.45,436.86l-12.21-.08a2.05,2.05,0,0,1-1.76-1L230.07,426a.7.7,0,0,1,.61-1l11.94.09a2.45,2.45,0,0,1,2.15,1.27l5.29,9.47A.69.69,0,0,1,249.45,436.86Z" style="fill:#455a64"></path><path d="M203.46,450.55l-12.21-.08a2.05,2.05,0,0,1-1.76-1.05l-5.41-9.7a.69.69,0,0,1,.61-1l11.94.09a2.45,2.45,0,0,1,2.15,1.27l5.29,9.47A.69.69,0,0,1,203.46,450.55Z" style="fill:#455a64"></path><path d="M221.32,450.68l-12.21-.09a2,2,0,0,1-1.75-1l-5.42-9.7a.69.69,0,0,1,.61-1l11.95.08a2.51,2.51,0,0,1,2.15,1.28l5.28,9.47A.69.69,0,0,1,221.32,450.68Z" style="fill:#455a64"></path><path d="M239.32,450.81l-12.2-.09a2,2,0,0,1-1.76-1L220,440a.69.69,0,0,1,.61-1l11.94.08a2.49,2.49,0,0,1,2.15,1.28l5.29,9.46A.7.7,0,0,1,239.32,450.81Z" style="fill:#455a64"></path><path d="M256.91,450.93l-12.21-.08a2.06,2.06,0,0,1-1.76-1l-5.41-9.7a.7.7,0,0,1,.61-1l12,.09a2.48,2.48,0,0,1,2.15,1.27l5.28,9.47A.69.69,0,0,1,256.91,450.93Z" style="fill:#455a64"></path><path d="M210.92,464.62l-12.21-.08a2.05,2.05,0,0,1-1.76-1.05l-5.41-9.69a.7.7,0,0,1,.61-1l11.95.09a2.48,2.48,0,0,1,2.15,1.27l5.28,9.47A.69.69,0,0,1,210.92,464.62Z" style="fill:#455a64"></path><path d="M228.78,464.75l-12.2-.09a2,2,0,0,1-1.76-1l-5.42-9.7a.7.7,0,0,1,.62-1L222,453a2.48,2.48,0,0,1,2.15,1.27l5.28,9.47A.69.69,0,0,1,228.78,464.75Z" style="fill:#455a64"></path><path d="M246.79,464.88l-12.21-.09a2,2,0,0,1-1.76-1l-5.41-9.7a.69.69,0,0,1,.61-1l11.94.08a2.48,2.48,0,0,1,2.15,1.28l5.29,9.47A.69.69,0,0,1,246.79,464.88Z" style="fill:#455a64"></path><path d="M264.37,465l-12.2-.09a2,2,0,0,1-1.76-1l-5.42-9.7a.7.7,0,0,1,.62-1l11.94.09a2.5,2.5,0,0,1,2.15,1.27L265,464A.7.7,0,0,1,264.37,465Z" style="fill:#455a64"></path><path d="M225.61,352.44l-12.21-.09a2,2,0,0,1-1.76-1l-5.41-9.7a.69.69,0,0,1,.61-1l11.94.09a2.45,2.45,0,0,1,2.15,1.27l5.29,9.47A.69.69,0,0,1,225.61,352.44Z" style="fill:#455a64"></path><path d="M243.86,352.57l-12.21-.08a2.05,2.05,0,0,1-1.76-1.05l-5.41-9.7a.69.69,0,0,1,.61-1l11.94.09a2.45,2.45,0,0,1,2.15,1.27l5.29,9.47A.69.69,0,0,1,243.86,352.57Z" style="fill:#455a64"></path><path d="M261.34,352.7l-12.2-.09a2,2,0,0,1-1.76-1l-5.41-9.7a.69.69,0,0,1,.61-1l11.94.08a2.5,2.5,0,0,1,2.15,1.27l5.28,9.47A.7.7,0,0,1,261.34,352.7Z" style="fill:#455a64"></path><path d="M278.75,352.82l-12.2-.09a2,2,0,0,1-1.76-1l-5.41-9.7a.69.69,0,0,1,.61-1l11.94.09a2.47,2.47,0,0,1,2.15,1.27l5.29,9.47A.69.69,0,0,1,278.75,352.82Z" style="fill:#455a64"></path><path d="M232.39,366.65l-12.2-.09a2,2,0,0,1-1.76-1l-5.41-9.7a.69.69,0,0,1,.61-1l11.94.09a2.47,2.47,0,0,1,2.15,1.27l5.29,9.47A.7.7,0,0,1,232.39,366.65Z" style="fill:#455a64"></path><path d="M250.26,366.78l-12.21-.09a2,2,0,0,1-1.76-1l-5.41-9.7a.69.69,0,0,1,.61-1l11.94.08a2.48,2.48,0,0,1,2.15,1.28l5.29,9.46A.7.7,0,0,1,250.26,366.78Z" style="fill:#455a64"></path><path d="M268.26,366.91l-12.2-.09a2,2,0,0,1-1.76-1l-5.42-9.7a.69.69,0,0,1,.61-1l11.95.08a2.5,2.5,0,0,1,2.15,1.27l5.28,9.47A.7.7,0,0,1,268.26,366.91Z" style="fill:#455a64"></path><path d="M285.85,367,273.64,367a2.05,2.05,0,0,1-1.76-1.05l-5.41-9.69a.7.7,0,0,1,.61-1l11.94.09a2.45,2.45,0,0,1,2.15,1.27l5.29,9.47A.69.69,0,0,1,285.85,367Z" style="fill:#455a64"></path><path d="M239.86,380.72l-12.21-.08a2.05,2.05,0,0,1-1.76-1.05l-5.41-9.7a.69.69,0,0,1,.61-1L233,369a2.45,2.45,0,0,1,2.15,1.27l5.29,9.47A.69.69,0,0,1,239.86,380.72Z" style="fill:#455a64"></path><path d="M257.72,380.85l-12.21-.09a2,2,0,0,1-1.76-1l-5.41-9.7a.69.69,0,0,1,.61-1l11.94.08a2.51,2.51,0,0,1,2.16,1.28l5.28,9.47A.69.69,0,0,1,257.72,380.85Z" style="fill:#455a64"></path><path d="M275.72,381l-12.2-.09a2,2,0,0,1-1.76-1l-5.42-9.7a.7.7,0,0,1,.62-1l11.94.08a2.51,2.51,0,0,1,2.15,1.28l5.28,9.46A.7.7,0,0,1,275.72,381Z" style="fill:#455a64"></path><path d="M293.31,381.1,281.1,381a2.06,2.06,0,0,1-1.76-1l-5.41-9.7a.7.7,0,0,1,.61-1l11.94.09a2.48,2.48,0,0,1,2.16,1.27l5.28,9.47A.69.69,0,0,1,293.31,381.1Z" style="fill:#455a64"></path><path d="M247.32,394.79l-12.21-.08a2.06,2.06,0,0,1-1.76-1l-5.41-9.7a.7.7,0,0,1,.61-1l11.94.09a2.48,2.48,0,0,1,2.16,1.27l5.28,9.47A.69.69,0,0,1,247.32,394.79Z" style="fill:#455a64"></path><path d="M265.18,394.92l-12.2-.09a2,2,0,0,1-1.76-1l-5.42-9.7a.69.69,0,0,1,.61-1l12,.09a2.48,2.48,0,0,1,2.15,1.27l5.28,9.47A.69.69,0,0,1,265.18,394.92Z" style="fill:#455a64"></path><path d="M283.18,395.05,271,395a2,2,0,0,1-1.76-1l-5.41-9.7a.69.69,0,0,1,.61-1l11.94.08a2.49,2.49,0,0,1,2.15,1.28L283.8,394A.7.7,0,0,1,283.18,395.05Z" style="fill:#455a64"></path><path d="M300.77,395.18l-12.2-.09a2,2,0,0,1-1.76-1l-5.42-9.7a.7.7,0,0,1,.61-1l11.95.09a2.5,2.5,0,0,1,2.15,1.27l5.28,9.47A.7.7,0,0,1,300.77,395.18Z" style="fill:#455a64"></path><path d="M254.78,408.86l-12.2-.08a2,2,0,0,1-1.76-1L235.4,398a.7.7,0,0,1,.61-1l12,.09a2.5,2.5,0,0,1,2.15,1.27l5.28,9.47A.69.69,0,0,1,254.78,408.86Z" style="fill:#455a64"></path><path d="M272.64,409l-12.2-.08a2,2,0,0,1-1.76-1.05l-5.41-9.69a.7.7,0,0,1,.61-1l11.94.09a2.48,2.48,0,0,1,2.15,1.27l5.28,9.47A.69.69,0,0,1,272.64,409Z" style="fill:#455a64"></path><path d="M290.65,409.12,278.44,409a2,2,0,0,1-1.76-1l-5.41-9.7a.69.69,0,0,1,.61-1l11.94.09a2.45,2.45,0,0,1,2.15,1.27l5.29,9.47A.69.69,0,0,1,290.65,409.12Z" style="fill:#455a64"></path><path d="M308.23,409.25l-12.2-.09a2,2,0,0,1-1.76-1l-5.42-9.7a.69.69,0,0,1,.62-1l11.94.08a2.5,2.5,0,0,1,2.15,1.27l5.28,9.47A.7.7,0,0,1,308.23,409.25Z" style="fill:#455a64"></path><path d="M262.24,422.94l-12.2-.09a2,2,0,0,1-1.76-1l-5.41-9.7a.69.69,0,0,1,.61-1l11.94.08a2.5,2.5,0,0,1,2.15,1.27l5.28,9.47A.7.7,0,0,1,262.24,422.94Z" style="fill:#455a64"></path><path d="M280.1,423.06,267.9,423a2.06,2.06,0,0,1-1.76-1l-5.41-9.7a.7.7,0,0,1,.61-1l11.94.09a2.47,2.47,0,0,1,2.15,1.27l5.29,9.47A.69.69,0,0,1,280.1,423.06Z" style="fill:#455a64"></path><path d="M298.11,423.19l-12.21-.08a2.05,2.05,0,0,1-1.76-1.05l-5.41-9.7a.69.69,0,0,1,.61-1l12,.09a2.48,2.48,0,0,1,2.15,1.27l5.28,9.47A.69.69,0,0,1,298.11,423.19Z" style="fill:#455a64"></path><path d="M315.69,423.32l-12.2-.09a2,2,0,0,1-1.76-1l-5.41-9.7a.69.69,0,0,1,.61-1l11.94.08a2.47,2.47,0,0,1,2.15,1.28l5.29,9.46A.7.7,0,0,1,315.69,423.32Z" style="fill:#455a64"></path><path d="M269.7,437l-12.2-.09a2,2,0,0,1-1.76-1l-5.41-9.7a.69.69,0,0,1,.61-1l11.94.08A2.49,2.49,0,0,1,265,426.5l5.29,9.47A.7.7,0,0,1,269.7,437Z" style="fill:#455a64"></path><path d="M287.57,437.14l-12.21-.09a2,2,0,0,1-1.76-1l-5.41-9.7a.7.7,0,0,1,.61-1l11.94.09a2.47,2.47,0,0,1,2.15,1.27l5.29,9.47A.7.7,0,0,1,287.57,437.14Z" style="fill:#455a64"></path><path d="M305.57,437.26l-12.2-.08a2,2,0,0,1-1.76-1l-5.42-9.7a.7.7,0,0,1,.62-1l11.94.09a2.48,2.48,0,0,1,2.15,1.27l5.28,9.47A.69.69,0,0,1,305.57,437.26Z" style="fill:#455a64"></path><path d="M323.16,437.39,311,437.3a2,2,0,0,1-1.76-1l-5.41-9.7a.69.69,0,0,1,.61-1l11.94.08a2.48,2.48,0,0,1,2.15,1.28l5.29,9.47A.69.69,0,0,1,323.16,437.39Z" style="fill:#455a64"></path><path d="M277.17,451.08,265,451a2,2,0,0,1-1.76-1l-5.41-9.7a.69.69,0,0,1,.61-1l11.94.08a2.48,2.48,0,0,1,2.15,1.28l5.29,9.47A.69.69,0,0,1,277.17,451.08Z" style="fill:#455a64"></path><path d="M295,451.21l-12.21-.09a2,2,0,0,1-1.76-1l-5.41-9.7a.69.69,0,0,1,.61-1l11.95.08a2.5,2.5,0,0,1,2.15,1.27l5.28,9.47A.7.7,0,0,1,295,451.21Z" style="fill:#455a64"></path><path d="M313,451.34l-12.2-.09a2.05,2.05,0,0,1-1.76-1l-5.41-9.7a.7.7,0,0,1,.61-1l11.94.09a2.5,2.5,0,0,1,2.15,1.27l5.28,9.47A.7.7,0,0,1,313,451.34Z" style="fill:#455a64"></path><path d="M330.62,451.46l-12.21-.09a2,2,0,0,1-1.76-1l-5.41-9.7a.69.69,0,0,1,.61-1l11.95.08A2.51,2.51,0,0,1,326,441l5.28,9.47A.69.69,0,0,1,330.62,451.46Z" style="fill:#455a64"></path><path d="M284.63,465.15l-12.21-.09a2,2,0,0,1-1.76-1l-5.41-9.7a.69.69,0,0,1,.61-1l11.95.08a2.51,2.51,0,0,1,2.15,1.28l5.28,9.47A.69.69,0,0,1,284.63,465.15Z" style="fill:#455a64"></path><path d="M302.49,465.28l-12.2-.09a2,2,0,0,1-1.76-1l-5.42-9.7a.69.69,0,0,1,.62-1l11.94.08a2.5,2.5,0,0,1,2.15,1.27l5.28,9.47A.7.7,0,0,1,302.49,465.28Z" style="fill:#455a64"></path><path d="M320.49,465.41l-12.2-.09a2,2,0,0,1-1.76-1l-5.41-9.7a.69.69,0,0,1,.61-1l11.94.08a2.47,2.47,0,0,1,2.15,1.27l5.29,9.47A.7.7,0,0,1,320.49,465.41Z" style="fill:#455a64"></path><path d="M338.08,465.53l-12.2-.09a2,2,0,0,1-1.76-1l-5.42-9.7a.7.7,0,0,1,.62-1l11.94.09a2.48,2.48,0,0,1,2.15,1.27l5.28,9.47A.69.69,0,0,1,338.08,465.53Z" style="fill:#455a64"></path><path d="M299.32,353l-12.21-.09a2,2,0,0,1-1.76-1l-5.41-9.7a.69.69,0,0,1,.61-1l11.94.08a2.48,2.48,0,0,1,2.15,1.28l5.29,9.46A.7.7,0,0,1,299.32,353Z" style="fill:#455a64"></path><path d="M317.56,353.1l-12.2-.09a2,2,0,0,1-1.76-1l-5.41-9.7a.69.69,0,0,1,.61-1l11.94.08a2.48,2.48,0,0,1,2.15,1.28l5.29,9.47A.7.7,0,0,1,317.56,353.1Z" style="fill:#455a64"></path><path d="M335.05,353.22l-12.2-.08a2.05,2.05,0,0,1-1.76-1l-5.42-9.7a.7.7,0,0,1,.62-1l11.94.09a2.48,2.48,0,0,1,2.15,1.27l5.28,9.47A.69.69,0,0,1,335.05,353.22Z" style="fill:#455a64"></path><path d="M352.46,353.35l-12.2-.09a2,2,0,0,1-1.76-1l-5.41-9.7a.69.69,0,0,1,.61-1l11.94.08a2.47,2.47,0,0,1,2.15,1.28l5.29,9.46A.7.7,0,0,1,352.46,353.35Z" style="fill:#455a64"></path><path d="M306.1,367.18l-12.2-.09a2,2,0,0,1-1.76-1l-5.41-9.7a.69.69,0,0,1,.61-1l11.94.08a2.5,2.5,0,0,1,2.15,1.27l5.29,9.47A.7.7,0,0,1,306.1,367.18Z" style="fill:#455a64"></path><path d="M324,367.31l-12.21-.09a2,2,0,0,1-1.76-1l-5.41-9.7a.7.7,0,0,1,.61-1l11.94.09a2.47,2.47,0,0,1,2.15,1.27l5.29,9.47A.7.7,0,0,1,324,367.31Z" style="fill:#455a64"></path><path d="M342,367.43l-12.21-.08a2.06,2.06,0,0,1-1.76-1l-5.41-9.7a.7.7,0,0,1,.61-1l11.95.09a2.48,2.48,0,0,1,2.15,1.27l5.28,9.47A.69.69,0,0,1,342,367.43Z" style="fill:#455a64"></path><path d="M359.56,367.56l-12.21-.09a2,2,0,0,1-1.76-1l-5.41-9.7a.69.69,0,0,1,.61-1l11.94.08a2.48,2.48,0,0,1,2.15,1.28l5.29,9.47A.69.69,0,0,1,359.56,367.56Z" style="fill:#455a64"></path><path d="M313.57,381.25l-12.21-.09a2,2,0,0,1-1.76-1l-5.41-9.7a.69.69,0,0,1,.61-1l11.94.08a2.48,2.48,0,0,1,2.15,1.28l5.29,9.47A.69.69,0,0,1,313.57,381.25Z" style="fill:#455a64"></path><path d="M331.43,381.38l-12.21-.09a2,2,0,0,1-1.76-1l-5.41-9.7a.69.69,0,0,1,.61-1l11.94.08a2.47,2.47,0,0,1,2.15,1.27l5.29,9.47A.7.7,0,0,1,331.43,381.38Z" style="fill:#455a64"></path><path d="M349.43,381.51l-12.2-.09a2.05,2.05,0,0,1-1.76-1l-5.42-9.7a.7.7,0,0,1,.62-1l11.94.09a2.5,2.5,0,0,1,2.15,1.27l5.28,9.47A.7.7,0,0,1,349.43,381.51Z" style="fill:#455a64"></path><path d="M367,381.63l-12.21-.09a2,2,0,0,1-1.76-1l-5.41-9.7a.69.69,0,0,1,.61-1l11.94.08a2.48,2.48,0,0,1,2.15,1.28l5.29,9.47A.69.69,0,0,1,367,381.63Z" style="fill:#455a64"></path><path d="M321,395.32l-12.21-.09a2,2,0,0,1-1.76-1l-5.41-9.7a.69.69,0,0,1,.61-1l11.94.08a2.48,2.48,0,0,1,2.15,1.28l5.29,9.47A.69.69,0,0,1,321,395.32Z" style="fill:#455a64"></path><path d="M338.89,395.45l-12.21-.09a2,2,0,0,1-1.76-1l-5.41-9.7a.69.69,0,0,1,.61-1l11.95.08a2.49,2.49,0,0,1,2.15,1.28l5.28,9.46A.7.7,0,0,1,338.89,395.45Z" style="fill:#455a64"></path><path d="M356.89,395.58l-12.2-.09a2,2,0,0,1-1.76-1l-5.41-9.7a.69.69,0,0,1,.61-1l11.94.08a2.49,2.49,0,0,1,2.15,1.27l5.29,9.47A.7.7,0,0,1,356.89,395.58Z" style="fill:#455a64"></path><path d="M374.48,395.7l-12.21-.09a2,2,0,0,1-1.76-1l-5.41-9.7a.69.69,0,0,1,.61-1l12,.09a2.48,2.48,0,0,1,2.15,1.27l5.28,9.47A.69.69,0,0,1,374.48,395.7Z" style="fill:#455a64"></path><path d="M328.49,409.39l-12.21-.09a2,2,0,0,1-1.76-1l-5.41-9.7a.69.69,0,0,1,.61-1l11.95.09a2.48,2.48,0,0,1,2.15,1.27l5.28,9.47A.69.69,0,0,1,328.49,409.39Z" style="fill:#455a64"></path><path d="M346.35,409.52l-12.2-.09a2,2,0,0,1-1.76-1l-5.42-9.7a.69.69,0,0,1,.62-1l11.94.08a2.51,2.51,0,0,1,2.15,1.28l5.28,9.47A.69.69,0,0,1,346.35,409.52Z" style="fill:#455a64"></path><path d="M364.36,409.65l-12.21-.09a2,2,0,0,1-1.76-1l-5.41-9.7a.69.69,0,0,1,.61-1l11.94.08a2.46,2.46,0,0,1,2.15,1.28l5.29,9.46A.7.7,0,0,1,364.36,409.65Z" style="fill:#455a64"></path><path d="M381.94,409.77l-12.2-.08a2,2,0,0,1-1.76-1.05L362.56,399a.7.7,0,0,1,.62-1l11.94.09a2.48,2.48,0,0,1,2.15,1.27l5.28,9.47A.69.69,0,0,1,381.94,409.77Z" style="fill:#455a64"></path><path d="M336,423.46l-12.2-.08a2,2,0,0,1-1.76-1.05l-5.42-9.69a.7.7,0,0,1,.62-1l11.94.09a2.48,2.48,0,0,1,2.15,1.27l5.28,9.47A.69.69,0,0,1,336,423.46Z" style="fill:#455a64"></path><path d="M353.81,423.59l-12.2-.09a2,2,0,0,1-1.76-1l-5.41-9.7a.69.69,0,0,1,.61-1l11.94.08a2.49,2.49,0,0,1,2.15,1.28l5.29,9.47A.7.7,0,0,1,353.81,423.59Z" style="fill:#455a64"></path><path d="M371.82,423.72l-12.21-.09a2,2,0,0,1-1.76-1l-5.41-9.7a.69.69,0,0,1,.61-1l11.94.08a2.51,2.51,0,0,1,2.16,1.28l5.28,9.47A.69.69,0,0,1,371.82,423.72Z" style="fill:#455a64"></path><path d="M389.4,423.84l-12.2-.08a2.06,2.06,0,0,1-1.76-1L370,413a.7.7,0,0,1,.61-1l11.94.09a2.49,2.49,0,0,1,2.15,1.27l5.29,9.47A.69.69,0,0,1,389.4,423.84Z" style="fill:#455a64"></path><path d="M343.41,437.53l-12.2-.08a2.06,2.06,0,0,1-1.76-1l-5.41-9.7a.7.7,0,0,1,.61-1l11.94.09a2.47,2.47,0,0,1,2.15,1.27L344,436.5A.69.69,0,0,1,343.41,437.53Z" style="fill:#455a64"></path><path d="M361.28,437.66l-12.21-.09a2,2,0,0,1-1.76-1l-5.41-9.7a.69.69,0,0,1,.61-1l11.94.09a2.45,2.45,0,0,1,2.15,1.27l5.29,9.47A.69.69,0,0,1,361.28,437.66Z" style="fill:#455a64"></path><path d="M379.28,437.79l-12.21-.09a2,2,0,0,1-1.75-1L359.9,427a.69.69,0,0,1,.61-1l11.95.08a2.51,2.51,0,0,1,2.15,1.28l5.28,9.47A.69.69,0,0,1,379.28,437.79Z" style="fill:#455a64"></path><path d="M396.87,437.92l-12.21-.09a2,2,0,0,1-1.76-1l-5.41-9.7a.7.7,0,0,1,.61-1l11.94.09a2.47,2.47,0,0,1,2.15,1.27l5.29,9.47A.7.7,0,0,1,396.87,437.92Z" style="fill:#455a64"></path><path d="M350.88,451.61l-12.21-.09a2,2,0,0,1-1.76-1l-5.41-9.7a.7.7,0,0,1,.61-1l11.94.09a2.47,2.47,0,0,1,2.15,1.27l5.29,9.47A.7.7,0,0,1,350.88,451.61Z" style="fill:#455a64"></path><path d="M368.74,451.73l-12.21-.08a2.05,2.05,0,0,1-1.76-1l-5.41-9.69a.7.7,0,0,1,.61-1l11.94.09a2.48,2.48,0,0,1,2.16,1.27l5.28,9.47A.69.69,0,0,1,368.74,451.73Z" style="fill:#455a64"></path><path d="M386.74,451.86l-12.2-.09a2,2,0,0,1-1.76-1l-5.42-9.7a.7.7,0,0,1,.62-1l11.94.09a2.48,2.48,0,0,1,2.15,1.27l5.28,9.47A.69.69,0,0,1,386.74,451.86Z" style="fill:#455a64"></path><path d="M404.33,452l-12.21-.09a2,2,0,0,1-1.76-1l-5.41-9.7a.69.69,0,0,1,.61-1l11.94.08a2.5,2.5,0,0,1,2.16,1.27l5.28,9.47A.7.7,0,0,1,404.33,452Z" style="fill:#455a64"></path><path d="M358.34,465.68l-12.21-.09a2,2,0,0,1-1.76-1l-5.41-9.7a.69.69,0,0,1,.61-1l11.94.08a2.5,2.5,0,0,1,2.16,1.27l5.28,9.47A.7.7,0,0,1,358.34,465.68Z" style="fill:#455a64"></path><path d="M376.2,465.8,364,465.72a2,2,0,0,1-1.75-1l-5.42-9.7a.7.7,0,0,1,.61-1l11.95.09a2.48,2.48,0,0,1,2.15,1.27l5.28,9.47A.69.69,0,0,1,376.2,465.8Z" style="fill:#455a64"></path><path d="M394.2,465.93l-12.2-.08a2.05,2.05,0,0,1-1.76-1.05l-5.41-9.69a.7.7,0,0,1,.61-1l11.94.09a2.47,2.47,0,0,1,2.15,1.27l5.29,9.47A.69.69,0,0,1,394.2,465.93Z" style="fill:#455a64"></path><path d="M411.79,466.06,399.58,466a2,2,0,0,1-1.75-1l-5.42-9.7a.69.69,0,0,1,.61-1l12,.08a2.51,2.51,0,0,1,2.15,1.28L412.4,465A.7.7,0,0,1,411.79,466.06Z" style="fill:#455a64"></path><path d="M152.39,380.1,364,465.72l48.19.34a.8.8,0,0,0,.32-1.53l-278-118.6Z" style="fill:#fff;opacity:0.30000000000000004"></path><polyline points="170.93 340.32 400.68 442.51 387.67 419.63 198.22 340.52 168.87 340.31" style="fill:#fff;opacity:0.30000000000000004"></polyline><path d="M422,468.59l-.27.49c-.19.34-.47.82-.85,1.47l-3.53,6,0,0h-.05l-183.87.31-46.31,0H187l-.07-.14c-19.09-37.65-35.69-70.38-47.53-93.71l-13.83-27.39c-1.61-3.19-2.84-5.66-3.69-7.34l-.94-1.91c-.21-.43-.31-.65-.31-.65s.13.21.35.63.55,1.06,1,1.89c.86,1.67,2.13,4.13,3.76,7.31l14,27.31c11.88,23.32,28.54,56,47.69,93.63l-.22-.14,46.31,0,183.87.05-.06,0,3.59-6,.89-1.45C421.93,468.74,422,468.59,422,468.59Z" style="fill:#263238"></path><path d="M187.14,476.71a19.47,19.47,0,0,1,1.81-4.12,19.12,19.12,0,0,1,2.28-3.89,19.47,19.47,0,0,1-1.81,4.12A19.12,19.12,0,0,1,187.14,476.71Z" style="fill:#263238"></path><polygon points="184.7 213.54 169.35 335.88 179.91 335.88 195.47 222.76 184.7 213.54" style="fill:#e0e0e0"></polygon><polygon points="169.34 192.79 166.03 202.98 233.49 333.39 463.66 331.58 468.32 323.59 363.6 279.79 169.34 192.79" style="fill:#e0e0e0"></polygon><polygon points="169.34 192.79 237.52 325.35 468.32 323.59 395.69 192.79 169.34 192.79" style="fill:#f5f5f5"></polygon><path d="M169.33,192.79l226.36-.24h.14l.07.12,72.65,130.8.21.38h-.44l-1.93,0-228.87,1.68h-.13l0-.11-68-132.65c.78,1.49,26.66,51.65,68.37,132.46l-.18-.11,228.87-1.79,1.93,0-.23.39c-25.84-46.56-50.42-90.85-72.61-130.81l.21.12Z" style="fill:#263238"></path><path d="M197.35,208.85h-12.2a2.05,2.05,0,0,1-1.77-1l-5.48-9.66a.7.7,0,0,1,.6-1h11.95a2.48,2.48,0,0,1,2.16,1.26l5.35,9.43A.7.7,0,0,1,197.35,208.85Z" style="fill:#455a64"></path><path d="M215.6,208.85H203.4a2.05,2.05,0,0,1-1.77-1l-5.48-9.66a.7.7,0,0,1,.6-1H208.7a2.48,2.48,0,0,1,2.16,1.26l5.35,9.43A.7.7,0,0,1,215.6,208.85Z" style="fill:#455a64"></path><path d="M233.09,208.85h-12.2a2,2,0,0,1-1.77-1l-5.48-9.66a.69.69,0,0,1,.6-1h11.94a2.47,2.47,0,0,1,2.16,1.26l5.36,9.43A.7.7,0,0,1,233.09,208.85Z" style="fill:#455a64"></path><path d="M250.5,208.85H238.3a2.05,2.05,0,0,1-1.77-1l-5.48-9.66a.7.7,0,0,1,.6-1H243.6a2.5,2.5,0,0,1,2.16,1.26l5.35,9.43A.7.7,0,0,1,250.5,208.85Z" style="fill:#455a64"></path><path d="M204.24,223H192a2.05,2.05,0,0,1-1.77-1l-5.48-9.66a.7.7,0,0,1,.6-1h12a2.5,2.5,0,0,1,2.16,1.26l5.35,9.43A.7.7,0,0,1,204.24,223Z" style="fill:#455a64"></path><path d="M222.11,223H209.9a2.05,2.05,0,0,1-1.77-1l-5.48-9.66a.7.7,0,0,1,.61-1H215.2a2.48,2.48,0,0,1,2.16,1.26l5.35,9.43A.7.7,0,0,1,222.11,223Z" style="fill:#455a64"></path><path d="M240.11,223H227.9a2,2,0,0,1-1.76-1l-5.48-9.66a.69.69,0,0,1,.6-1H233.2a2.47,2.47,0,0,1,2.16,1.26l5.35,9.43A.69.69,0,0,1,240.11,223Z" style="fill:#455a64"></path><path d="M257.7,223H245.49a2.05,2.05,0,0,1-1.77-1l-5.48-9.66a.7.7,0,0,1,.61-1h11.94a2.48,2.48,0,0,1,2.16,1.26L258.3,222A.7.7,0,0,1,257.7,223Z" style="fill:#455a64"></path><path d="M211.81,237H199.6a2.05,2.05,0,0,1-1.77-1l-5.48-9.66a.7.7,0,0,1,.61-1H204.9a2.48,2.48,0,0,1,2.16,1.26l5.35,9.43A.7.7,0,0,1,211.81,237Z" style="fill:#455a64"></path><path d="M229.67,237H217.46a2,2,0,0,1-1.76-1l-5.49-9.66a.7.7,0,0,1,.61-1h11.94a2.48,2.48,0,0,1,2.16,1.26l5.35,9.43A.69.69,0,0,1,229.67,237Z" style="fill:#455a64"></path><path d="M247.67,237h-12.2a2.05,2.05,0,0,1-1.77-1l-5.48-9.66a.7.7,0,0,1,.6-1h12a2.5,2.5,0,0,1,2.16,1.26l5.35,9.43A.7.7,0,0,1,247.67,237Z" style="fill:#455a64"></path><path d="M265.26,237H253.05a2,2,0,0,1-1.76-1l-5.49-9.66a.7.7,0,0,1,.61-1h11.94a2.47,2.47,0,0,1,2.16,1.26l5.35,9.43A.69.69,0,0,1,265.26,237Z" style="fill:#455a64"></path><path d="M219.37,251H207.16a2,2,0,0,1-1.76-1l-5.49-9.66a.69.69,0,0,1,.61-1h11.94a2.5,2.5,0,0,1,2.16,1.25L220,250A.69.69,0,0,1,219.37,251Z" style="fill:#455a64"></path><path d="M237.23,251H225a2,2,0,0,1-1.77-1l-5.48-9.66a.69.69,0,0,1,.6-1h11.94a2.48,2.48,0,0,1,2.16,1.25l5.36,9.43A.7.7,0,0,1,237.23,251Z" style="fill:#455a64"></path><path d="M255.24,251H243a2,2,0,0,1-1.77-1l-5.48-9.66a.69.69,0,0,1,.61-1h11.94a2.5,2.5,0,0,1,2.16,1.25l5.35,9.43A.7.7,0,0,1,255.24,251Z" style="fill:#455a64"></path><path d="M272.82,251h-12.2a2,2,0,0,1-1.77-1l-5.48-9.66a.69.69,0,0,1,.6-1h11.94a2.48,2.48,0,0,1,2.16,1.25l5.36,9.43A.7.7,0,0,1,272.82,251Z" style="fill:#455a64"></path><path d="M226.93,265.06H214.72a2,2,0,0,1-1.76-1l-5.48-9.66a.69.69,0,0,1,.6-1H220a2.47,2.47,0,0,1,2.16,1.26l5.35,9.43A.69.69,0,0,1,226.93,265.06Z" style="fill:#455a64"></path><path d="M244.79,265.06h-12.2a2,2,0,0,1-1.77-1l-5.48-9.66a.7.7,0,0,1,.6-1h11.95a2.5,2.5,0,0,1,2.16,1.26L245.4,264A.7.7,0,0,1,244.79,265.06Z" style="fill:#455a64"></path><path d="M262.8,265.06H250.59a2,2,0,0,1-1.76-1l-5.49-9.66a.7.7,0,0,1,.61-1h11.94a2.48,2.48,0,0,1,2.16,1.26L263.4,264A.7.7,0,0,1,262.8,265.06Z" style="fill:#455a64"></path><path d="M280.38,265.06h-12.2a2,2,0,0,1-1.77-1l-5.48-9.66a.7.7,0,0,1,.6-1h12a2.5,2.5,0,0,1,2.16,1.26L281,264A.7.7,0,0,1,280.38,265.06Z" style="fill:#455a64"></path><path d="M234.49,279.08h-12.2a2,2,0,0,1-1.77-1L215,268.39a.7.7,0,0,1,.6-1h12a2.5,2.5,0,0,1,2.16,1.26L235.1,278A.7.7,0,0,1,234.49,279.08Z" style="fill:#455a64"></path><path d="M252.36,279.08H240.15a2,2,0,0,1-1.77-1l-5.48-9.66a.7.7,0,0,1,.61-1h11.94a2.48,2.48,0,0,1,2.16,1.26L253,278A.7.7,0,0,1,252.36,279.08Z" style="fill:#455a64"></path><path d="M270.36,279.08H258.15a2,2,0,0,1-1.76-1l-5.48-9.66a.69.69,0,0,1,.6-1h11.94a2.47,2.47,0,0,1,2.16,1.26L271,278A.69.69,0,0,1,270.36,279.08Z" style="fill:#455a64"></path><path d="M288,279.08H275.74a2,2,0,0,1-1.77-1l-5.48-9.66a.7.7,0,0,1,.61-1H281a2.48,2.48,0,0,1,2.16,1.26l5.35,9.43A.7.7,0,0,1,288,279.08Z" style="fill:#455a64"></path><path d="M242.06,293.1H229.85a2.05,2.05,0,0,1-1.77-1l-5.48-9.66a.7.7,0,0,1,.61-1h11.94a2.48,2.48,0,0,1,2.16,1.26l5.35,9.43A.7.7,0,0,1,242.06,293.1Z" style="fill:#455a64"></path><path d="M259.92,293.1H247.71a2,2,0,0,1-1.76-1l-5.49-9.66a.7.7,0,0,1,.61-1H253a2.48,2.48,0,0,1,2.16,1.26l5.35,9.43A.69.69,0,0,1,259.92,293.1Z" style="fill:#455a64"></path><path d="M277.92,293.1h-12.2a2.05,2.05,0,0,1-1.77-1l-5.48-9.66a.69.69,0,0,1,.6-1H271a2.47,2.47,0,0,1,2.16,1.26l5.36,9.43A.7.7,0,0,1,277.92,293.1Z" style="fill:#455a64"></path><path d="M295.51,293.1H283.3a2,2,0,0,1-1.76-1l-5.49-9.66a.7.7,0,0,1,.61-1H288.6a2.48,2.48,0,0,1,2.16,1.26l5.35,9.43A.69.69,0,0,1,295.51,293.1Z" style="fill:#455a64"></path><path d="M249.62,307.11H237.41a2,2,0,0,1-1.76-1l-5.49-9.66a.69.69,0,0,1,.61-1h11.94a2.5,2.5,0,0,1,2.16,1.25l5.35,9.44A.69.69,0,0,1,249.62,307.11Z" style="fill:#455a64"></path><path d="M267.48,307.11H255.27a2,2,0,0,1-1.76-1L248,296.42a.69.69,0,0,1,.6-1h11.94a2.48,2.48,0,0,1,2.16,1.25l5.35,9.44A.69.69,0,0,1,267.48,307.11Z" style="fill:#455a64"></path><path d="M285.48,307.11h-12.2a2,2,0,0,1-1.77-1L266,296.42a.69.69,0,0,1,.6-1h11.95a2.5,2.5,0,0,1,2.16,1.25l5.35,9.44A.69.69,0,0,1,285.48,307.11Z" style="fill:#455a64"></path><path d="M303.07,307.11h-12.2a2,2,0,0,1-1.77-1l-5.48-9.66a.69.69,0,0,1,.6-1h11.94a2.48,2.48,0,0,1,2.16,1.25l5.36,9.44A.69.69,0,0,1,303.07,307.11Z" style="fill:#455a64"></path><path d="M257.18,321.13H245a2,2,0,0,1-1.76-1l-5.48-9.66a.69.69,0,0,1,.6-1h11.94a2.47,2.47,0,0,1,2.16,1.26l5.35,9.43A.69.69,0,0,1,257.18,321.13Z" style="fill:#455a64"></path><path d="M275,321.13h-12.2a2,2,0,0,1-1.77-1l-5.48-9.66a.7.7,0,0,1,.6-1h11.95a2.5,2.5,0,0,1,2.16,1.26l5.35,9.43A.7.7,0,0,1,275,321.13Z" style="fill:#455a64"></path><path d="M293.05,321.13H280.84a2,2,0,0,1-1.77-1l-5.48-9.66a.7.7,0,0,1,.61-1h11.94a2.48,2.48,0,0,1,2.16,1.26l5.35,9.43A.7.7,0,0,1,293.05,321.13Z" style="fill:#455a64"></path><path d="M310.63,321.13h-12.2a2,2,0,0,1-1.77-1l-5.48-9.66a.7.7,0,0,1,.6-1h12a2.5,2.5,0,0,1,2.16,1.26l5.35,9.43A.7.7,0,0,1,310.63,321.13Z" style="fill:#455a64"></path><path d="M271.07,208.85H258.86a2.05,2.05,0,0,1-1.77-1l-5.48-9.66a.7.7,0,0,1,.61-1h11.94a2.48,2.48,0,0,1,2.16,1.26l5.35,9.43A.7.7,0,0,1,271.07,208.85Z" style="fill:#455a64"></path><path d="M289.31,208.85h-12.2a2.05,2.05,0,0,1-1.77-1l-5.48-9.66a.7.7,0,0,1,.61-1h11.94a2.48,2.48,0,0,1,2.16,1.26l5.35,9.43A.7.7,0,0,1,289.31,208.85Z" style="fill:#455a64"></path><path d="M306.8,208.85H294.6a2.05,2.05,0,0,1-1.77-1l-5.48-9.66a.7.7,0,0,1,.6-1h11.94a2.47,2.47,0,0,1,2.16,1.26l5.36,9.43A.7.7,0,0,1,306.8,208.85Z" style="fill:#455a64"></path><path d="M324.21,208.85H312a2.05,2.05,0,0,1-1.77-1l-5.48-9.66a.7.7,0,0,1,.6-1h11.95a2.48,2.48,0,0,1,2.16,1.26l5.35,9.43A.7.7,0,0,1,324.21,208.85Z" style="fill:#455a64"></path><path d="M278,223h-12.2a2.05,2.05,0,0,1-1.77-1l-5.48-9.66a.7.7,0,0,1,.6-1h11.95a2.48,2.48,0,0,1,2.16,1.26l5.35,9.43A.7.7,0,0,1,278,223Z" style="fill:#455a64"></path><path d="M295.82,223H283.61a2.06,2.06,0,0,1-1.77-1l-5.48-9.66a.7.7,0,0,1,.61-1h11.94a2.48,2.48,0,0,1,2.16,1.26l5.35,9.43A.7.7,0,0,1,295.82,223Z" style="fill:#455a64"></path><path d="M313.82,223h-12.2a2,2,0,0,1-1.77-1l-5.48-9.66a.69.69,0,0,1,.6-1h11.94a2.47,2.47,0,0,1,2.16,1.26l5.36,9.43A.7.7,0,0,1,313.82,223Z" style="fill:#455a64"></path><path d="M331.41,223H319.2a2.06,2.06,0,0,1-1.77-1L312,212.32a.7.7,0,0,1,.61-1H324.5a2.48,2.48,0,0,1,2.16,1.26L332,222A.7.7,0,0,1,331.41,223Z" style="fill:#455a64"></path><path d="M285.52,237H273.31a2.06,2.06,0,0,1-1.77-1l-5.48-9.66a.7.7,0,0,1,.61-1h11.94a2.48,2.48,0,0,1,2.16,1.26l5.35,9.43A.7.7,0,0,1,285.52,237Z" style="fill:#455a64"></path><path d="M303.38,237H291.17a2,2,0,0,1-1.76-1l-5.49-9.66a.7.7,0,0,1,.61-1h11.94a2.47,2.47,0,0,1,2.16,1.26L304,236A.69.69,0,0,1,303.38,237Z" style="fill:#455a64"></path><path d="M321.38,237h-12.2a2.05,2.05,0,0,1-1.77-1l-5.48-9.66a.7.7,0,0,1,.6-1h12a2.5,2.5,0,0,1,2.16,1.26L322,236A.7.7,0,0,1,321.38,237Z" style="fill:#455a64"></path><path d="M339,237H326.76a2,2,0,0,1-1.76-1l-5.48-9.66a.69.69,0,0,1,.6-1h11.94a2.47,2.47,0,0,1,2.16,1.26l5.35,9.43A.69.69,0,0,1,339,237Z" style="fill:#455a64"></path><path d="M293.08,251H280.87a2,2,0,0,1-1.76-1l-5.49-9.66a.69.69,0,0,1,.61-1h11.94a2.48,2.48,0,0,1,2.16,1.25l5.35,9.43A.69.69,0,0,1,293.08,251Z" style="fill:#455a64"></path><path d="M310.94,251h-12.2a2,2,0,0,1-1.77-1l-5.48-9.66a.69.69,0,0,1,.6-1H304a2.48,2.48,0,0,1,2.16,1.25l5.36,9.43A.7.7,0,0,1,310.94,251Z" style="fill:#455a64"></path><path d="M329,251H316.74a2,2,0,0,1-1.77-1l-5.48-9.66a.69.69,0,0,1,.61-1H322a2.5,2.5,0,0,1,2.16,1.25l5.35,9.43A.7.7,0,0,1,329,251Z" style="fill:#455a64"></path><path d="M346.53,251h-12.2a2,2,0,0,1-1.77-1l-5.48-9.66a.69.69,0,0,1,.6-1h11.94a2.48,2.48,0,0,1,2.16,1.25l5.36,9.43A.7.7,0,0,1,346.53,251Z" style="fill:#455a64"></path><path d="M300.64,265.06h-12.2a2,2,0,0,1-1.77-1l-5.48-9.66a.69.69,0,0,1,.6-1h11.94a2.47,2.47,0,0,1,2.16,1.26l5.36,9.43A.7.7,0,0,1,300.64,265.06Z" style="fill:#455a64"></path><path d="M318.5,265.06H306.3a2,2,0,0,1-1.77-1l-5.48-9.66a.7.7,0,0,1,.6-1h12a2.48,2.48,0,0,1,2.16,1.26l5.35,9.43A.7.7,0,0,1,318.5,265.06Z" style="fill:#455a64"></path><path d="M336.51,265.06H324.3a2,2,0,0,1-1.76-1l-5.49-9.66a.7.7,0,0,1,.61-1H329.6a2.48,2.48,0,0,1,2.16,1.26l5.35,9.43A.69.69,0,0,1,336.51,265.06Z" style="fill:#455a64"></path><path d="M354.09,265.06h-12.2a2,2,0,0,1-1.77-1l-5.48-9.66a.7.7,0,0,1,.6-1h11.95a2.48,2.48,0,0,1,2.16,1.26L354.7,264A.7.7,0,0,1,354.09,265.06Z" style="fill:#455a64"></path><path d="M308.2,279.08H296a2,2,0,0,1-1.77-1l-5.48-9.66a.7.7,0,0,1,.6-1H301.3a2.48,2.48,0,0,1,2.16,1.26l5.35,9.43A.7.7,0,0,1,308.2,279.08Z" style="fill:#455a64"></path><path d="M326.07,279.08H313.86a2,2,0,0,1-1.77-1l-5.48-9.66a.7.7,0,0,1,.61-1h11.94a2.48,2.48,0,0,1,2.16,1.26l5.35,9.43A.7.7,0,0,1,326.07,279.08Z" style="fill:#455a64"></path><path d="M344.07,279.08h-12.2a2,2,0,0,1-1.77-1l-5.48-9.66a.69.69,0,0,1,.6-1h11.94a2.47,2.47,0,0,1,2.16,1.26l5.36,9.43A.7.7,0,0,1,344.07,279.08Z" style="fill:#455a64"></path><path d="M361.66,279.08H349.45a2,2,0,0,1-1.77-1l-5.48-9.66a.7.7,0,0,1,.61-1h11.94a2.48,2.48,0,0,1,2.16,1.26l5.35,9.43A.7.7,0,0,1,361.66,279.08Z" style="fill:#455a64"></path><path d="M315.77,293.1H303.56a2.05,2.05,0,0,1-1.77-1l-5.48-9.66a.7.7,0,0,1,.61-1h11.94a2.48,2.48,0,0,1,2.16,1.26l5.35,9.43A.7.7,0,0,1,315.77,293.1Z" style="fill:#455a64"></path><path d="M333.63,293.1H321.42a2,2,0,0,1-1.76-1l-5.49-9.66a.7.7,0,0,1,.61-1h11.94a2.47,2.47,0,0,1,2.16,1.26l5.35,9.43A.69.69,0,0,1,333.63,293.1Z" style="fill:#455a64"></path><path d="M351.63,293.1h-12.2a2.05,2.05,0,0,1-1.77-1l-5.48-9.66a.7.7,0,0,1,.6-1h12a2.5,2.5,0,0,1,2.16,1.26l5.35,9.43A.7.7,0,0,1,351.63,293.1Z" style="fill:#455a64"></path><path d="M369.22,293.1H357a2,2,0,0,1-1.76-1l-5.48-9.66a.69.69,0,0,1,.6-1h11.94a2.47,2.47,0,0,1,2.16,1.26l5.35,9.43A.69.69,0,0,1,369.22,293.1Z" style="fill:#455a64"></path><path d="M323.33,307.11H311.12a2,2,0,0,1-1.76-1l-5.49-9.66a.69.69,0,0,1,.61-1h11.94a2.5,2.5,0,0,1,2.16,1.25l5.35,9.44A.69.69,0,0,1,323.33,307.11Z" style="fill:#455a64"></path><path d="M341.19,307.11H329a2,2,0,0,1-1.77-1l-5.48-9.66a.69.69,0,0,1,.6-1h11.94a2.48,2.48,0,0,1,2.16,1.25l5.36,9.44A.69.69,0,0,1,341.19,307.11Z" style="fill:#455a64"></path><path d="M359.2,307.11H347a2,2,0,0,1-1.77-1l-5.48-9.66a.69.69,0,0,1,.61-1h11.94a2.5,2.5,0,0,1,2.16,1.25l5.35,9.44A.69.69,0,0,1,359.2,307.11Z" style="fill:#455a64"></path><path d="M376.78,307.11h-12.2a2,2,0,0,1-1.77-1l-5.48-9.66a.69.69,0,0,1,.6-1h11.94a2.48,2.48,0,0,1,2.16,1.25l5.36,9.44A.69.69,0,0,1,376.78,307.11Z" style="fill:#455a64"></path><path d="M330.89,321.13h-12.2a2,2,0,0,1-1.77-1l-5.48-9.66a.69.69,0,0,1,.6-1H324a2.47,2.47,0,0,1,2.16,1.26l5.36,9.43A.7.7,0,0,1,330.89,321.13Z" style="fill:#455a64"></path><path d="M348.75,321.13h-12.2a2,2,0,0,1-1.77-1l-5.48-9.66a.7.7,0,0,1,.6-1h12a2.5,2.5,0,0,1,2.16,1.26l5.35,9.43A.7.7,0,0,1,348.75,321.13Z" style="fill:#455a64"></path><path d="M366.76,321.13H354.55a2,2,0,0,1-1.76-1l-5.49-9.66a.7.7,0,0,1,.61-1h11.94a2.48,2.48,0,0,1,2.16,1.26l5.35,9.43A.69.69,0,0,1,366.76,321.13Z" style="fill:#455a64"></path><path d="M384.34,321.13h-12.2a2,2,0,0,1-1.77-1l-5.48-9.66a.7.7,0,0,1,.6-1h11.95a2.48,2.48,0,0,1,2.16,1.26l5.35,9.43A.7.7,0,0,1,384.34,321.13Z" style="fill:#455a64"></path><path d="M344.78,208.85H332.57a2.05,2.05,0,0,1-1.77-1l-5.48-9.66a.7.7,0,0,1,.61-1h11.94a2.48,2.48,0,0,1,2.16,1.26l5.35,9.43A.7.7,0,0,1,344.78,208.85Z" style="fill:#455a64"></path><path d="M363,208.85H350.82a2.05,2.05,0,0,1-1.77-1l-5.48-9.66a.7.7,0,0,1,.61-1h11.94a2.48,2.48,0,0,1,2.16,1.26l5.35,9.43A.7.7,0,0,1,363,208.85Z" style="fill:#455a64"></path><path d="M380.51,208.85h-12.2a2.05,2.05,0,0,1-1.77-1l-5.48-9.66a.7.7,0,0,1,.6-1h11.95a2.5,2.5,0,0,1,2.16,1.26l5.35,9.43A.7.7,0,0,1,380.51,208.85Z" style="fill:#455a64"></path><path d="M397.93,208.85H385.72a2.05,2.05,0,0,1-1.77-1l-5.48-9.66a.7.7,0,0,1,.61-1H391a2.48,2.48,0,0,1,2.16,1.26l5.35,9.43A.7.7,0,0,1,397.93,208.85Z" style="fill:#455a64"></path><path d="M351.67,223H339.46a2.05,2.05,0,0,1-1.77-1l-5.48-9.66a.7.7,0,0,1,.61-1h11.94a2.48,2.48,0,0,1,2.16,1.26l5.35,9.43A.7.7,0,0,1,351.67,223Z" style="fill:#455a64"></path><path d="M369.53,223H357.32a2,2,0,0,1-1.76-1l-5.49-9.66a.7.7,0,0,1,.61-1h11.94a2.48,2.48,0,0,1,2.16,1.26l5.35,9.43A.69.69,0,0,1,369.53,223Z" style="fill:#455a64"></path><path d="M387.53,223h-12.2a2.05,2.05,0,0,1-1.77-1l-5.48-9.66a.69.69,0,0,1,.6-1h11.94a2.47,2.47,0,0,1,2.16,1.26l5.36,9.43A.7.7,0,0,1,387.53,223Z" style="fill:#455a64"></path><path d="M405.12,223H392.91a2,2,0,0,1-1.76-1l-5.49-9.66a.7.7,0,0,1,.61-1h11.94a2.48,2.48,0,0,1,2.16,1.26l5.35,9.43A.69.69,0,0,1,405.12,223Z" style="fill:#455a64"></path><path d="M359.23,237H347a2,2,0,0,1-1.76-1l-5.49-9.66a.7.7,0,0,1,.61-1h11.94a2.48,2.48,0,0,1,2.16,1.26l5.35,9.43A.7.7,0,0,1,359.23,237Z" style="fill:#455a64"></path><path d="M377.09,237H364.88a2,2,0,0,1-1.76-1l-5.48-9.66a.69.69,0,0,1,.6-1h11.94a2.47,2.47,0,0,1,2.16,1.26l5.35,9.43A.69.69,0,0,1,377.09,237Z" style="fill:#455a64"></path><path d="M395.09,237h-12.2a2.05,2.05,0,0,1-1.77-1l-5.48-9.66a.7.7,0,0,1,.6-1h11.95a2.48,2.48,0,0,1,2.16,1.26L395.7,236A.7.7,0,0,1,395.09,237Z" style="fill:#455a64"></path><path d="M412.68,237h-12.2a2,2,0,0,1-1.77-1l-5.48-9.66a.69.69,0,0,1,.6-1h11.94a2.47,2.47,0,0,1,2.16,1.26l5.36,9.43A.7.7,0,0,1,412.68,237Z" style="fill:#455a64"></path><path d="M366.79,251H354.58a2,2,0,0,1-1.76-1l-5.48-9.66a.69.69,0,0,1,.6-1h11.94a2.48,2.48,0,0,1,2.16,1.25l5.35,9.43A.69.69,0,0,1,366.79,251Z" style="fill:#455a64"></path><path d="M384.65,251h-12.2a2,2,0,0,1-1.77-1l-5.48-9.66a.69.69,0,0,1,.6-1h11.94a2.48,2.48,0,0,1,2.16,1.25l5.36,9.43A.7.7,0,0,1,384.65,251Z" style="fill:#455a64"></path><path d="M402.66,251H390.45a2,2,0,0,1-1.77-1l-5.48-9.66a.69.69,0,0,1,.61-1h11.94a2.5,2.5,0,0,1,2.16,1.25l5.35,9.43A.7.7,0,0,1,402.66,251Z" style="fill:#455a64"></path><path d="M420.24,251H408a2,2,0,0,1-1.77-1l-5.48-9.66a.69.69,0,0,1,.6-1h11.95a2.51,2.51,0,0,1,2.16,1.25l5.35,9.43A.7.7,0,0,1,420.24,251Z" style="fill:#455a64"></path><path d="M374.35,265.06h-12.2a2,2,0,0,1-1.77-1l-5.48-9.66a.7.7,0,0,1,.6-1h11.94a2.47,2.47,0,0,1,2.16,1.26L375,264A.7.7,0,0,1,374.35,265.06Z" style="fill:#455a64"></path><path d="M392.21,265.06H380a2,2,0,0,1-1.77-1l-5.48-9.66a.7.7,0,0,1,.61-1h11.94a2.48,2.48,0,0,1,2.16,1.26l5.35,9.43A.7.7,0,0,1,392.21,265.06Z" style="fill:#455a64"></path><path d="M410.22,265.06H398a2,2,0,0,1-1.76-1l-5.48-9.66a.69.69,0,0,1,.6-1h11.94a2.47,2.47,0,0,1,2.16,1.26l5.35,9.43A.69.69,0,0,1,410.22,265.06Z" style="fill:#455a64"></path><path d="M427.81,265.06H415.6a2,2,0,0,1-1.77-1l-5.48-9.66a.7.7,0,0,1,.61-1H420.9a2.48,2.48,0,0,1,2.16,1.26l5.35,9.43A.7.7,0,0,1,427.81,265.06Z" style="fill:#455a64"></path><path d="M381.91,279.08h-12.2a2,2,0,0,1-1.77-1l-5.48-9.66a.7.7,0,0,1,.6-1H375a2.48,2.48,0,0,1,2.16,1.26l5.35,9.43A.7.7,0,0,1,381.91,279.08Z" style="fill:#455a64"></path><path d="M399.78,279.08H387.57a2,2,0,0,1-1.77-1l-5.48-9.66a.7.7,0,0,1,.61-1h11.94a2.48,2.48,0,0,1,2.16,1.26l5.35,9.43A.7.7,0,0,1,399.78,279.08Z" style="fill:#455a64"></path><path d="M417.78,279.08h-12.2a2,2,0,0,1-1.77-1l-5.48-9.66a.69.69,0,0,1,.6-1h11.94a2.47,2.47,0,0,1,2.16,1.26l5.36,9.43A.7.7,0,0,1,417.78,279.08Z" style="fill:#455a64"></path><path d="M435.37,279.08H423.16a2,2,0,0,1-1.76-1l-5.49-9.66a.7.7,0,0,1,.61-1h11.94a2.48,2.48,0,0,1,2.16,1.26L436,278A.69.69,0,0,1,435.37,279.08Z" style="fill:#455a64"></path><path d="M389.48,293.1H377.27a2.06,2.06,0,0,1-1.77-1L370,282.41a.7.7,0,0,1,.61-1h11.94a2.48,2.48,0,0,1,2.16,1.26l5.35,9.43A.7.7,0,0,1,389.48,293.1Z" style="fill:#455a64"></path><path d="M407.34,293.1H395.13a2,2,0,0,1-1.76-1l-5.48-9.66a.69.69,0,0,1,.6-1h11.94a2.47,2.47,0,0,1,2.16,1.26l5.35,9.43A.69.69,0,0,1,407.34,293.1Z" style="fill:#455a64"></path><path d="M425.34,293.1h-12.2a2.05,2.05,0,0,1-1.77-1l-5.48-9.66a.7.7,0,0,1,.6-1h11.95a2.48,2.48,0,0,1,2.16,1.26l5.35,9.43A.7.7,0,0,1,425.34,293.1Z" style="fill:#455a64"></path><path d="M442.93,293.1H430.72a2,2,0,0,1-1.76-1l-5.48-9.66a.69.69,0,0,1,.6-1H436a2.47,2.47,0,0,1,2.16,1.26l5.35,9.43A.69.69,0,0,1,442.93,293.1Z" style="fill:#455a64"></path><path d="M397,307.11H384.83a2,2,0,0,1-1.76-1l-5.48-9.66a.69.69,0,0,1,.6-1h11.94a2.48,2.48,0,0,1,2.16,1.25l5.35,9.44A.69.69,0,0,1,397,307.11Z" style="fill:#455a64"></path><path d="M414.9,307.11H402.7a2,2,0,0,1-1.77-1l-5.48-9.66a.69.69,0,0,1,.6-1H408a2.48,2.48,0,0,1,2.16,1.25l5.36,9.44A.69.69,0,0,1,414.9,307.11Z" style="fill:#455a64"></path><path d="M432.91,307.11H420.7a2,2,0,0,1-1.77-1l-5.48-9.66a.69.69,0,0,1,.61-1H426a2.5,2.5,0,0,1,2.16,1.25l5.35,9.44A.69.69,0,0,1,432.91,307.11Z" style="fill:#455a64"></path><path d="M450.49,307.11h-12.2a2,2,0,0,1-1.77-1L431,296.42a.69.69,0,0,1,.6-1h11.95a2.51,2.51,0,0,1,2.16,1.25l5.35,9.44A.69.69,0,0,1,450.49,307.11Z" style="fill:#455a64"></path><path d="M404.6,321.13H392.4a2,2,0,0,1-1.77-1l-5.48-9.66a.69.69,0,0,1,.6-1h11.94a2.47,2.47,0,0,1,2.16,1.26l5.36,9.43A.7.7,0,0,1,404.6,321.13Z" style="fill:#455a64"></path><path d="M422.46,321.13h-12.2a2,2,0,0,1-1.77-1L403,310.44a.7.7,0,0,1,.6-1h11.95a2.48,2.48,0,0,1,2.16,1.26l5.35,9.43A.7.7,0,0,1,422.46,321.13Z" style="fill:#455a64"></path><path d="M440.47,321.13H428.26a2,2,0,0,1-1.76-1L421,310.44a.7.7,0,0,1,.61-1h11.94a2.47,2.47,0,0,1,2.16,1.26l5.35,9.43A.69.69,0,0,1,440.47,321.13Z" style="fill:#455a64"></path><path d="M458.06,321.13H445.85a2,2,0,0,1-1.77-1l-5.48-9.66a.7.7,0,0,1,.61-1h11.94a2.48,2.48,0,0,1,2.16,1.26l5.35,9.43A.7.7,0,0,1,458.06,321.13Z" style="fill:#455a64"></path><path d="M198.05,237l212.21,84.1h48.19a.8.8,0,0,0,.31-1.54L179.89,203Z" style="fill:#fff;opacity:0.30000000000000004"></path><polyline points="216.3 197.12 446.77 297.66 433.6 274.87 243.6 197.12 214.24 197.12" style="fill:#fff;opacity:0.30000000000000004"></polyline><path d="M468.32,323.59s-.08.17-.26.49l-.84,1.48-3.49,6.06,0,0h0L279.8,333.29l-46.31.35h-.16l-.07-.13c-19.36-37.51-36.19-70.12-48.2-93.37l-14-27.29-3.74-7.32c-.41-.83-.73-1.46-.95-1.9S166,203,166,203l.35.63,1,1.88,3.82,7.28L185.35,240l48.36,93.28-.23-.13,46.32-.37,183.86-1.26-.06,0,3.55-6c.39-.64.67-1.13.87-1.46Z" style="fill:#263238"></path><path d="M233.48,333.39a20.81,20.81,0,0,1,1.79-4.14,19.06,19.06,0,0,1,2.25-3.9,20,20,0,0,1-1.78,4.14A19.72,19.72,0,0,1,233.48,333.39Z" style="fill:#263238"></path></g><g id="freepik--Sun--inject-34"><circle cx="380.91" cy="89.15" r="35.07" transform="translate(48.53 295.46) rotate(-45)" style="fill:#FF725E"></circle><circle cx="380.91" cy="89.15" r="35.07" transform="translate(48.53 295.46) rotate(-45)" style="fill:#fff;opacity:0.9"></circle><circle cx="380.66" cy="88.66" r="28.39" style="fill:#FF725E"></circle><circle cx="380.66" cy="88.66" r="28.39" style="fill:#fff;opacity:0.8"></circle><circle cx="380.66" cy="88.66" r="22.45" transform="translate(236.16 451.82) rotate(-81.41)" style="fill:#FF725E"></circle><path d="M377.47,138.85a90.3,90.3,0,0,1-.24-9.26,90.46,90.46,0,0,1,.24-9.26,92.39,92.39,0,0,1,.23,9.26A92.23,92.23,0,0,1,377.47,138.85Z" style="fill:#FF725E"></path><path d="M364.53,115.11c.12.07-2,3.94-4.71,8.64a98.28,98.28,0,0,1-5.13,8.4c-.11-.06,2-3.93,4.72-8.63S364.42,115.05,364.53,115.11Z" style="fill:#FF725E"></path><path d="M351.26,106.85a52,52,0,0,1-5.24,4.47,52.14,52.14,0,0,1-5.54,4.1,47.94,47.94,0,0,1,5.24-4.47A50.5,50.5,0,0,1,351.26,106.85Z" style="fill:#FF725E"></path><path d="M399.86,129.73a12.89,12.89,0,0,1-.59-2.28c-.32-1.41-.78-3.36-1.36-5.49s-1.15-4-1.58-5.44a12.43,12.43,0,0,1-.63-2.26,10.56,10.56,0,0,1,.95,2.16c.51,1.36,1.14,3.27,1.72,5.41s1,4.12,1.23,5.56A10.34,10.34,0,0,1,399.86,129.73Z" style="fill:#FF725E"></path><path d="M422.63,113.57a76,76,0,0,1-6.64-5.48,77.14,77.14,0,0,1-6.32-5.84,81.11,81.11,0,0,1,6.63,5.48A82.88,82.88,0,0,1,422.63,113.57Z" style="fill:#FF725E"></path><path d="M431.35,91.37a17.53,17.53,0,0,1-2.71-.39c-1.66-.27-4-.63-6.51-.92s-4.88-.47-6.56-.57a18.45,18.45,0,0,1-2.73-.24,14,14,0,0,1,2.74-.1c1.69,0,4,.15,6.6.44a63.23,63.23,0,0,1,6.52,1.07A13.89,13.89,0,0,1,431.35,91.37Z" style="fill:#FF725E"></path><path d="M431.37,69.54c0,.13-4.82,1.42-10.85,2.89s-10.93,2.55-11,2.43,4.82-1.42,10.85-2.89S431.34,69.42,431.37,69.54Z" style="fill:#FF725E"></path><path d="M406,44.11c.11.07-2.22,3.78-5.19,8.28s-5.48,8.09-5.59,8,2.22-3.78,5.19-8.28S405.9,44,406,44.11Z" style="fill:#FF725E"></path><path d="M380.84,38.79a21.09,21.09,0,0,1,0,3.08c0,1.9-.06,4.53-.06,7.43s.05,5.52.08,7.42a21,21,0,0,1,0,3.08,18.65,18.65,0,0,1-.31-3.06c-.11-1.9-.21-4.54-.21-7.44s.09-5.54.2-7.44A18.54,18.54,0,0,1,380.84,38.79Z" style="fill:#FF725E"></path><path d="M361.78,62.53c-.11.07-2.48-3.59-5.28-8.18s-5-8.37-4.88-8.44,2.47,3.6,5.28,8.19S361.89,62.47,361.78,62.53Z" style="fill:#FF725E"></path><path d="M350.39,72.21a11.19,11.19,0,0,1-2.39-.38c-1.46-.3-3.46-.79-5.64-1.44s-4.13-1.32-5.53-1.85a11.6,11.6,0,0,1-2.21-1,13.63,13.63,0,0,1,2.32.66c1.42.46,3.38,1.08,5.55,1.72s4.16,1.18,5.59,1.57A14.64,14.64,0,0,1,350.39,72.21Z" style="fill:#FF725E"></path><path d="M345.42,89.46a56,56,0,0,1-7.17.92,56.14,56.14,0,0,1-7.21.46,54.82,54.82,0,0,1,7.17-.93A55,55,0,0,1,345.42,89.46Z" style="fill:#FF725E"></path></g><g id="freepik--Plants--inject-34"><path d="M76.06,419.25a10.7,10.7,0,0,1,5.55,6.29,18.84,18.84,0,0,1,.74,8.51c-.63,5.53-3.77,11.11-7.15,15.52-4.65-4.06-5.72-11.14-6-14.77-.5-5.74,2.08-16.4,6.9-15.55" style="fill:#FF725E"></path><path d="M80.61,458.69a9.13,9.13,0,0,1,3-8.68,12.11,12.11,0,0,1,8.94-2.8A5.14,5.14,0,0,1,96.44,449a3.9,3.9,0,0,1,.06,4,7.79,7.79,0,0,1-2.93,2.88c-4,2.53-8.4,4.24-13,2.87" style="fill:#FF725E"></path><path d="M74.65,475.64a5.85,5.85,0,0,1,.16-1.14c.15-.79.34-1.83.56-3.07a32.37,32.37,0,0,1,3.17-9.8,19.64,19.64,0,0,1,7-7.48,13,13,0,0,1,2.87-1.26,6.17,6.17,0,0,1,.82-.21,1.24,1.24,0,0,1,.3-.05,20.79,20.79,0,0,0-3.85,1.77,20.37,20.37,0,0,0-6.83,7.43,34.79,34.79,0,0,0-3.24,9.66c-.28,1.29-.51,2.33-.69,3.05A7,7,0,0,1,74.65,475.64Z" style="fill:#263238"></path><path d="M74.82,427.55a3.26,3.26,0,0,1,.06.49c0,.37.05.84.08,1.43.07,1.24.14,3,.21,5.24.15,4.43.26,10.55.23,17.31s-.2,12.88-.38,17.31c-.09,2.21-.18,4-.25,5.24,0,.58-.08,1.05-.1,1.42a3.3,3.3,0,0,1-.06.5,2,2,0,0,1,0-.5c0-.37,0-.84,0-1.43,0-1.29.07-3.07.13-5.24.11-4.43.23-10.55.26-17.3s0-12.87-.11-17.3c0-2.18-.06-4-.08-5.25,0-.58,0-1.05,0-1.42A2.73,2.73,0,0,1,74.82,427.55Z" style="fill:#263238"></path><path d="M72.56,462.06A21.37,21.37,0,0,0,60.89,446.4c-1.55-.74-3.58-1.23-4.86-.07s-1,3.23-.37,4.84a18.25,18.25,0,0,0,16.79,11.34" style="fill:#FF725E"></path><path d="M61.65,451.64a6.13,6.13,0,0,1,1,.43,10.75,10.75,0,0,1,1.12.6,15.77,15.77,0,0,1,1.42.89,19.08,19.08,0,0,1,1.62,1.22,20.48,20.48,0,0,1,1.73,1.57,24.19,24.19,0,0,1,3.29,4.23A23.82,23.82,0,0,1,74,465.47a20.13,20.13,0,0,1,.54,2.28,15.84,15.84,0,0,1,.28,2,14.65,14.65,0,0,1,.08,1.68,9.68,9.68,0,0,1,0,1.26,5.24,5.24,0,0,1-.12,1.07c-.09,0,.07-1.54-.2-4a18.14,18.14,0,0,0-.33-2,19.79,19.79,0,0,0-.57-2.23,23.68,23.68,0,0,0-2.16-4.8,24.62,24.62,0,0,0-3.2-4.17A21.8,21.8,0,0,0,66.58,455,19.45,19.45,0,0,0,65,453.79C63,452.36,61.6,451.72,61.65,451.64Z" style="fill:#263238"></path><path d="M707.23,460.84s.26.07.69.3a12.34,12.34,0,0,1,1.73,1.11,18,18,0,0,1,6.91,11.36,13.32,13.32,0,0,1,.2,2,2.47,2.47,0,0,1,0,.76c-.1,0-.14-1.07-.51-2.73a20,20,0,0,0-6.78-11.14C708.11,461.45,707.19,460.92,707.23,460.84Z" style="fill:#263238"></path><path d="M714.68,455a17.39,17.39,0,0,1,1.14,3c.63,1.92,1.41,4.59,2.13,7.58s1.24,5.72,1.55,7.71a17.84,17.84,0,0,1,.38,3.24,22.07,22.07,0,0,1-.74-3.17c-.41-2-1-4.68-1.7-7.66s-1.44-5.65-2-7.59A23.92,23.92,0,0,1,714.68,455Z" style="fill:#263238"></path><path d="M725.26,466.1a50.66,50.66,0,0,0-1.65,5.1,49.62,49.62,0,0,0-.57,5.33,11.34,11.34,0,0,1,.07-5.44A11.22,11.22,0,0,1,725.26,466.1Z" style="fill:#263238"></path><path d="M100,465.75a5.52,5.52,0,0,1,1.49,1.15,19,19,0,0,1,4.9,7.61,5.5,5.5,0,0,1,.43,1.84,52.35,52.35,0,0,0-2.86-5.66A51.24,51.24,0,0,0,100,465.75Z" style="fill:#263238"></path><path d="M103.31,457a13.74,13.74,0,0,1,1.4,2.61,46.36,46.36,0,0,1,2.43,6.69,45.53,45.53,0,0,1,1.38,7,13.68,13.68,0,0,1,.15,2.95,23,23,0,0,1-.52-2.9,65.61,65.61,0,0,0-1.51-6.91,66.28,66.28,0,0,0-2.27-6.69A22.79,22.79,0,0,1,103.31,457Z" style="fill:#263238"></path></g><g id="freepik--Icon--inject-34"><circle cx="98.62" cy="236.3" r="30.15" transform="translate(-143.57 153.19) rotate(-48.41)" style="fill:#fff"></circle><path d="M104.11,220.39c1.6-.07-13.44,17.71-13.44,17.71H97l-5.3,14,15.9-18.22h-6.84Z" style="fill:#263238"></path><path d="M121.55,216a2,2,0,0,1-.37-.32l-1-1a15.38,15.38,0,0,0-1.75-1.56,22.1,22.1,0,0,0-2.56-1.92,29.09,29.09,0,0,0-7.86-3.77,30.36,30.36,0,0,0-11.42-1.3A30.43,30.43,0,0,0,70.6,225.69a31.36,31.36,0,0,0-1.19,4.22,34,34,0,0,0-.64,4.43,34.81,34.81,0,0,0,.11,4.56,28.76,28.76,0,0,0,2.27,9,29.77,29.77,0,0,0,12.55,14.2,29.22,29.22,0,0,0,8.7,3.36,34.78,34.78,0,0,0,4.51.66,31.79,31.79,0,0,0,4.48-.09,27.58,27.58,0,0,0,8.41-2,30.21,30.21,0,0,0,18.61-33.56,28.92,28.92,0,0,0-2.79-8.27,22.75,22.75,0,0,0-1.58-2.77,15.11,15.11,0,0,0-1.34-1.92l-.87-1.16a1.93,1.93,0,0,1-.28-.41,3.26,3.26,0,0,1,.34.36l.93,1.11a13.78,13.78,0,0,1,1.41,1.9,20.27,20.27,0,0,1,1.66,2.76,28.85,28.85,0,0,1,2.94,8.32A30.61,30.61,0,0,1,123,255a30.85,30.85,0,0,1-13,9.74,28.14,28.14,0,0,1-8.61,2,34.91,34.91,0,0,1-4.58.1,34.9,34.9,0,0,1-4.63-.67,29.82,29.82,0,0,1-8.93-3.44,30.35,30.35,0,0,1-12.87-14.56A29.85,29.85,0,0,1,68.12,239a34.71,34.71,0,0,1-.09-4.67,33.85,33.85,0,0,1,.65-4.53,32.49,32.49,0,0,1,1.24-4.32,32,32,0,0,1,1.84-4A30.74,30.74,0,0,1,83,209.8,30.65,30.65,0,0,1,108.1,207,28.88,28.88,0,0,1,116,211a21.9,21.9,0,0,1,2.54,2,14.5,14.5,0,0,1,1.71,1.63l1,1.06A2.9,2.9,0,0,1,121.55,216Z" style="fill:#263238"></path><path d="M128.65,240.38c0,.21,5.52.28,12.32.16s12.32-.39,12.31-.6-5.52-.29-12.32-.17S128.64,240.16,128.65,240.38Z" style="fill:#263238"></path><path d="M151.91,240.93a1.42,1.42,0,0,0,2.13-1.88,1.42,1.42,0,1,0-2.13,1.88Z" style="fill:#263238"></path></g></svg>